<?xml version="1.0" standalone="no"?>
<!DOCTYPE svg PUBLIC "-//W3C//DTD SVG 20010904//EN"
 "http://www.w3.org/TR/2001/REC-SVG-20010904/DTD/svg10.dtd">
<svg version="1.0" xmlns="http://www.w3.org/2000/svg"
 width="2715.000000pt" height="2715.000000pt" viewBox="0 0 2715.000000 2715.000000"
 preserveAspectRatio="xMidYMid meet">
<metadata>
Created by potrace 1.11, written by Peter Selinger 2001-2013
</metadata>
<g transform="translate(0.000000,2715.000000) scale(0.100000,-0.100000)"
fill="#000000" stroke="none">
<path d="M18290 25330 c-11 -11 -20 -28 -20 -38 0 -26 32 -52 63 -52 44 0 64
62 29 93 -25 22 -48 21 -72 -3z"/>
<path d="M14532 25074 c-12 -8 -22 -22 -22 -31 0 -8 22 -122 49 -252 28 -130
100 -495 161 -811 61 -316 115 -589 121 -607 16 -49 68 -60 94 -19 15 22 8 65
-105 647 -158 816 -208 1050 -227 1072 -20 21 -42 22 -71 1z"/>
<path d="M14252 25018 c-20 -20 -14 -62 47 -330 32 -142 57 -258 56 -258 -1 0
-24 10 -51 21 -70 32 -163 30 -237 -4 -125 -57 -224 -208 -254 -387 -38 -223
32 -541 154 -701 110 -145 293 -202 436 -136 64 29 135 97 164 156 l20 40 12
-51 c6 -28 16 -57 22 -65 19 -22 67 -16 84 10 16 25 15 29 -135 682 -21 94
-80 355 -130 580 -51 226 -99 420 -106 433 -16 24 -62 30 -82 10z m4 -668 c52
-20 103 -71 133 -133 19 -38 49 -139 77 -262 40 -170 47 -217 48 -310 1 -103
-1 -114 -30 -175 -70 -148 -185 -198 -311 -134 -110 54 -181 163 -229 349 -31
119 -38 304 -15 395 29 120 99 225 176 264 34 18 111 21 151 6z"/>
<path d="M21913 24974 c-15 -24 -15 -29 -2 -53 29 -51 99 -32 99 28 0 34 -17
51 -52 51 -19 0 -33 -8 -45 -26z"/>
<path d="M18282 24972 c-18 -18 -19 -51 -26 -478 -4 -252 -11 -524 -16 -604
-9 -151 -5 -174 30 -185 35 -11 67 18 74 67 9 62 26 674 26 949 0 216 -2 237
-18 252 -24 22 -48 21 -70 -1z"/>
<path d="M18586 24968 c-10 -17 -25 -177 -55 -583 -23 -308 -44 -579 -47 -602
-4 -34 -1 -46 15 -62 26 -26 42 -26 71 -3 21 17 23 36 56 467 38 503 36 495
120 585 54 57 151 110 203 110 51 0 94 -30 122 -86 23 -47 24 -57 23 -234 -1
-102 -11 -290 -23 -418 -27 -295 -27 -328 -2 -342 28 -15 57 -12 72 6 14 17
50 393 64 664 9 156 19 182 109 272 91 90 194 128 254 92 86 -50 111 -203 93
-574 -6 -118 -18 -295 -28 -392 -18 -195 -15 -208 37 -208 49 0 57 22 74 200
8 91 21 269 27 395 22 448 -17 618 -157 685 -36 18 -58 21 -112 18 -87 -5
-163 -41 -246 -118 l-62 -58 -17 46 c-37 105 -117 162 -228 162 -72 0 -139
-26 -220 -86 l-49 -36 0 49 c0 27 -5 54 -12 61 -20 20 -66 14 -82 -10z"/>
<path d="M17055 24937 c-169 -57 -268 -177 -267 -323 1 -93 52 -178 148 -244
22 -16 96 -61 165 -101 152 -89 221 -141 259 -197 106 -160 -21 -313 -249
-300 -96 6 -174 39 -235 102 -24 25 -49 46 -56 46 -6 0 -22 -11 -36 -25 -19
-19 -23 -31 -18 -48 19 -61 93 -123 192 -160 47 -18 79 -22 182 -22 115 0 130
2 182 27 85 40 124 74 154 133 52 107 39 241 -30 324 -58 70 -146 138 -261
203 -214 120 -273 170 -282 236 -9 66 5 110 48 157 57 62 118 89 199 89 68 0
108 -14 163 -60 34 -29 58 -30 80 -6 41 45 -2 111 -102 154 -58 25 -181 33
-236 15z"/>
<path d="M20279 24861 c-198 -77 -350 -309 -403 -617 -43 -242 -4 -415 121
-540 70 -70 140 -97 243 -92 85 4 141 27 208 84 l42 36 -6 -70 c-6 -67 -6 -70
19 -87 29 -19 62 -13 76 13 5 9 12 46 16 82 12 121 45 385 55 445 5 33 21 145
36 249 23 162 25 198 16 248 -22 116 -82 199 -177 244 -63 30 -176 32 -246 5z
m194 -105 c51 -21 96 -75 114 -136 15 -53 15 -62 -17 -280 -34 -244 -57 -344
-95 -425 -53 -111 -161 -195 -249 -195 -88 1 -173 68 -223 175 -86 187 14 616
179 771 99 92 207 126 291 90z"/>
<path d="M16210 24856 c-118 -25 -241 -125 -274 -222 -24 -70 -21 -159 8 -219
34 -75 97 -123 287 -221 266 -138 334 -205 327 -325 -5 -70 -33 -111 -100
-145 -132 -67 -328 -38 -415 61 -38 42 -66 44 -95 4 -19 -25 -19 -28 -4 -57
75 -144 359 -203 551 -113 125 58 175 133 175 260 -1 42 -7 93 -14 114 -35 96
-131 175 -358 293 -92 48 -186 102 -207 121 -93 79 -77 212 34 292 57 40 107
54 181 49 52 -3 72 -10 110 -37 56 -39 93 -39 112 2 12 24 11 31 -2 52 -23 35
-101 77 -170 92 -72 15 -75 15 -146 -1z"/>
<path d="M15247 24705 c-120 -44 -223 -180 -262 -346 -48 -205 14 -556 128
-727 129 -192 350 -253 531 -147 166 97 278 375 152 375 -29 0 -56 -29 -56
-61 0 -34 -41 -119 -78 -160 -48 -55 -132 -93 -206 -93 -116 0 -224 80 -287
212 -30 62 -72 210 -82 289 l-5 41 87 16 c47 9 185 32 306 51 230 38 245 43
245 91 0 39 -50 185 -88 258 -90 172 -244 252 -385 201z m183 -129 c47 -31 94
-97 131 -185 37 -87 37 -99 -3 -106 -18 -3 -134 -23 -257 -44 l-224 -38 6 61
c14 146 83 269 178 319 64 34 110 32 169 -7z"/>
<path d="M21249 24710 c-114 -34 -269 -167 -351 -300 -130 -210 -194 -512
-144 -683 70 -242 349 -323 560 -162 l34 25 -19 -92 c-28 -135 -77 -283 -113
-336 -17 -26 -47 -55 -66 -64 -99 -50 -245 13 -332 141 -18 25 -36 49 -42 53
-33 23 -86 -8 -86 -49 0 -30 55 -106 118 -164 93 -85 210 -126 308 -108 173
33 256 171 329 549 82 425 138 733 171 928 35 214 36 224 19 242 -33 36 -95
16 -95 -30 0 -30 -15 -31 -41 -4 -41 44 -92 64 -161 63 -35 0 -75 -4 -89 -9z
m166 -130 c41 -38 69 -117 69 -195 0 -112 -78 -506 -116 -582 -35 -70 -110
-148 -179 -184 -65 -34 -158 -33 -220 3 -93 55 -124 132 -117 292 10 206 99
415 238 558 95 96 179 141 253 135 31 -3 56 -12 72 -27z"/>
<path d="M21842 24632 c-13 -13 -41 -123 -96 -372 -43 -195 -105 -461 -137
-590 -32 -129 -59 -238 -59 -242 0 -31 77 -51 98 -25 6 7 31 91 56 187 50 195
226 978 226 1008 0 23 -30 52 -53 52 -9 0 -25 -8 -35 -18z"/>
<path d="M22153 24577 c-12 -5 -24 -15 -26 -21 -3 -6 -76 -273 -162 -594 -135
-498 -156 -586 -147 -607 13 -29 55 -34 82 -10 10 9 60 178 131 442 l114 427
56 57 c80 80 172 124 260 124 82 0 113 -19 149 -91 22 -44 25 -61 25 -164 0
-145 -32 -304 -126 -638 -72 -253 -77 -280 -57 -300 20 -20 66 -14 82 11 18
28 126 408 165 582 40 176 54 289 49 404 -3 79 -9 106 -32 153 -32 67 -98 129
-154 146 -88 27 -208 8 -308 -48 l-50 -28 15 59 c17 64 11 86 -24 99 -11 4
-30 3 -42 -3z"/>
<path d="M24306 24488 c-8 -13 -38 -88 -66 -168 -28 -80 -54 -151 -59 -159 -7
-11 -28 -7 -110 20 -105 35 -121 34 -145 -4 -7 -10 -7 -25 -1 -43 9 -24 24
-32 113 -62 56 -18 100 -37 98 -40 -19 -33 -436 -1165 -436 -1185 0 -41 63
-65 89 -34 6 8 109 276 230 596 120 320 221 585 224 587 3 3 44 -9 92 -25 48
-17 95 -31 104 -31 40 0 69 73 39 98 -7 5 -54 24 -105 42 -91 32 -92 32 -81
59 36 92 108 305 108 321 0 48 -68 68 -94 28z"/>
<path d="M23255 24266 c-221 -70 -402 -300 -497 -632 -29 -104 -31 -254 -4
-334 39 -114 103 -192 195 -233 34 -16 66 -22 127 -22 74 0 88 3 153 37 39 20
71 34 71 32 0 -2 -7 -31 -17 -64 -15 -57 -15 -61 2 -80 22 -25 57 -26 77 -2 9
9 37 89 63 177 26 88 89 288 140 445 52 157 97 310 100 341 17 143 -68 289
-194 334 -52 18 -161 19 -216 1z m195 -118 c31 -16 54 -38 74 -71 49 -80 43
-129 -44 -392 -40 -121 -91 -256 -113 -300 -144 -280 -407 -308 -503 -55 -12
30 -17 74 -17 135 0 77 5 105 36 197 56 165 115 273 201 367 113 122 263 171
366 119z"/>
<path d="M13162 24200 c-54 -24 -142 -107 -184 -173 l-32 -51 -16 54 c-18 62
-45 85 -83 71 -14 -5 -28 -19 -32 -30 -7 -23 307 -1140 331 -1178 26 -41 94
-23 94 25 0 15 -52 208 -115 429 -63 222 -115 418 -115 437 0 47 35 139 78
204 46 71 111 115 176 120 159 12 278 -205 436 -798 29 -107 59 -205 66 -217
16 -25 62 -31 82 -11 21 21 14 63 -48 286 -111 406 -201 632 -295 739 -64 73
-147 113 -234 113 -44 0 -81 -7 -109 -20z"/>
<path d="M24757 24172 c-22 -24 -21 -55 1 -75 36 -33 92 -8 92 41 0 47 -61 69
-93 34z"/>
<path d="M12261 23899 c-118 -23 -208 -122 -257 -284 -26 -85 -24 -254 4 -358
76 -283 209 -484 369 -560 63 -30 75 -32 173 -32 92 0 112 3 160 26 125 59
222 201 228 335 5 86 -7 114 -47 114 -42 0 -61 -28 -61 -91 0 -100 -68 -206
-162 -253 -139 -69 -307 -2 -418 167 -38 59 -126 264 -117 273 2 3 119 45 258
95 140 49 269 95 288 102 68 24 66 67 -6 196 -110 195 -267 298 -412 270z
m127 -126 c52 -24 141 -118 179 -188 l31 -59 -229 -82 c-126 -46 -238 -86
-248 -89 -17 -5 -20 1 -26 57 -12 111 36 268 99 327 55 52 128 65 194 34z"/>
<path d="M24618 23833 c-9 -10 -89 -199 -178 -421 -89 -222 -190 -468 -226
-548 -65 -147 -74 -180 -52 -202 21 -21 66 -14 84 12 45 70 464 1090 464 1132
0 43 -62 61 -92 27z"/>
<path d="M25015 23633 c-84 -30 -146 -72 -225 -152 -191 -192 -314 -494 -297
-729 8 -113 31 -167 96 -233 71 -70 130 -93 234 -87 98 4 169 40 269 136 166
159 282 405 307 656 20 197 -25 328 -134 392 -61 35 -177 43 -250 17z m197
-120 c108 -63 110 -312 3 -564 -128 -303 -329 -464 -490 -390 -155 70 -165
322 -25 606 141 285 363 435 512 348z"/>
<path d="M25728 23378 c-23 -20 -568 -1083 -568 -1110 0 -13 5 -29 12 -36 17
-17 63 -15 79 4 7 9 104 192 215 407 200 388 202 392 254 428 83 57 165 82
254 77 85 -4 119 -22 149 -79 27 -51 18 -187 -21 -299 -44 -127 -128 -307
-252 -540 -114 -215 -126 -250 -88 -274 11 -7 26 -7 44 -1 22 8 46 44 121 185
164 305 261 519 310 685 26 90 23 216 -6 283 -30 66 -95 125 -158 143 -62 17
-186 15 -242 -5 -24 -9 -47 -16 -52 -16 -5 0 3 24 18 54 25 52 26 55 9 80 -18
28 -52 34 -78 14z"/>
<path d="M10420 23111 c-54 -17 -115 -55 -162 -102 -126 -127 -143 -319 -38
-428 71 -73 127 -93 335 -116 319 -37 422 -80 456 -194 23 -78 -11 -151 -98
-212 -106 -74 -268 -98 -347 -51 -45 27 -77 28 -99 4 -43 -48 6 -101 117 -129
174 -43 406 47 504 194 36 54 37 60 37 142 0 70 -5 94 -24 131 -69 133 -181
183 -491 220 -243 29 -297 49 -331 123 -34 77 -17 153 52 232 64 72 180 104
268 74 59 -21 103 20 77 72 -6 12 -27 28 -46 35 -38 14 -170 17 -210 5z"/>
<path d="M18165 22809 c-111 -12 -122 -16 -40 -18 39 -1 88 -4 109 -8 33 -5
38 -4 33 10 -4 10 0 17 11 20 26 7 -24 5 -113 -4z"/>
<path d="M18709 22796 c9 -10 9 -16 1 -21 -6 -4 -125 -10 -265 -14 -173 -5
-258 -11 -268 -20 -11 -9 -27 -9 -63 -1 -27 6 -134 15 -239 20 -104 5 -214 14
-244 20 -70 13 -76 13 -62 -4 10 -12 3 -16 -44 -21 -31 -4 -73 -5 -93 -1 -20
3 -55 2 -77 -1 l-40 -7 35 -6 c19 -4 -38 -6 -127 -6 -91 0 -167 -4 -172 -9 -6
-7 57 -10 172 -10 100 0 200 -4 222 -9 l40 -8 -38 -14 c-21 -7 -97 -23 -170
-34 -73 -12 -199 -32 -282 -46 -168 -27 -189 -29 -162 -13 9 5 17 14 17 19 0
16 -37 11 -126 -15 -79 -25 -85 -25 -136 -11 -29 8 -71 17 -93 21 -73 11 -71
21 5 40 39 10 69 19 67 21 -2 2 -46 -1 -98 -6 -52 -6 -188 -15 -304 -20 -270
-12 -477 -41 -690 -99 -184 -51 -524 -134 -560 -137 -85 -9 -396 -110 -733
-238 -56 -22 -103 -34 -116 -30 -23 5 -108 -14 -291 -66 -55 -15 -136 -38
-180 -49 -93 -26 -272 -110 -255 -121 12 -8 -177 -96 -355 -165 -129 -51 -132
-51 -167 -42 -22 6 -65 -7 -190 -56 -90 -35 -217 -85 -284 -111 -66 -25 -145
-61 -176 -79 -34 -21 -75 -36 -106 -40 -134 -16 -392 -126 -794 -340 -139 -74
-294 -155 -344 -180 -88 -44 -91 -47 -86 -76 4 -28 0 -32 -57 -60 -135 -69
-381 -225 -548 -348 -83 -61 -92 -72 -69 -85 14 -8 15 -12 5 -24 -22 -27 -171
-129 -354 -244 -99 -62 -223 -141 -275 -176 -52 -34 -130 -80 -173 -103 -185
-97 -325 -210 -622 -501 -235 -229 -359 -341 -455 -408 -36 -25 -99 -78 -140
-117 -84 -80 -247 -191 -420 -285 -178 -96 -213 -130 -137 -130 l32 -1 -37
-30 c-47 -38 -50 -66 -8 -71 l29 -3 -42 -62 c-31 -45 -50 -64 -72 -69 -20 -4
-73 -49 -159 -135 -87 -86 -144 -134 -172 -146 -24 -10 -47 -27 -52 -38 -5
-12 -59 -82 -119 -156 -157 -193 -232 -296 -263 -361 -16 -34 -60 -92 -109
-144 -45 -48 -107 -125 -138 -171 -56 -82 -57 -83 -99 -83 l-42 0 -62 -157
c-42 -105 -71 -166 -89 -181 -56 -50 -123 -102 -132 -102 -13 0 -10 28 6 75
24 67 8 51 -36 -36 -23 -46 -82 -155 -131 -242 -50 -87 -112 -206 -139 -264
-44 -94 -51 -104 -63 -88 -11 16 -16 11 -48 -46 -20 -35 -59 -111 -88 -168
-38 -77 -69 -122 -119 -175 -168 -178 -373 -494 -898 -1386 -138 -234 -278
-469 -312 -523 -89 -143 -87 -139 -55 -131 37 9 32 -2 -61 -137 -84 -120 -130
-210 -122 -239 3 -13 -7 -28 -36 -51 l-40 -32 7 36 c4 21 5 37 3 37 -3 0 -15
-26 -27 -57 -13 -32 -67 -150 -120 -263 -122 -256 -165 -372 -181 -482 -13
-86 -29 -110 -29 -42 0 41 -17 45 -26 7 -17 -79 -38 -144 -47 -150 -9 -6 -7
21 9 107 3 19 0 16 -12 -10 -27 -59 -54 -180 -61 -272 -7 -108 7 -168 54 -214
l33 -33 -36 -87 c-46 -112 -66 -209 -63 -309 3 -71 0 -86 -22 -121 l-24 -39
-3 38 c-2 21 1 59 6 84 20 94 -8 22 -41 -107 -88 -334 -144 -643 -134 -738 3
-30 2 -64 -3 -77 -5 -13 -14 -70 -20 -127 -6 -56 -27 -188 -45 -293 -43 -234
-77 -466 -70 -473 3 -3 8 9 11 26 9 46 22 39 30 -15 5 -35 -2 -94 -30 -237
-20 -105 -44 -213 -52 -241 -27 -92 -62 -299 -69 -404 -5 -92 -28 -230 -55
-341 -23 -96 -23 -91 7 -79 14 5 32 8 40 5 26 -11 14 -117 -36 -322 -86 -346
-96 -429 -66 -519 25 -74 38 -81 30 -15 -11 84 0 58 34 -84 38 -156 74 -245
135 -330 72 -101 157 -166 268 -206 62 -23 38 -26 -47 -6 -70 17 -84 13 -32
-9 71 -30 152 -45 237 -45 94 0 117 9 122 50 4 29 34 46 113 62 46 9 58 9 65
-2 4 -7 6 -19 3 -27 -24 -63 179 -57 381 11 125 42 187 77 248 137 100 100
150 261 173 559 8 95 27 195 49 261 19 55 14 60 -14 15 -12 -20 -26 -36 -31
-36 -14 0 -11 121 6 197 8 37 39 163 70 278 69 262 85 351 86 490 1 61 3 101
6 90 2 -11 6 -30 9 -42 2 -13 9 -23 16 -23 7 0 9 20 4 66 l-7 66 33 -33 c18
-19 41 -38 50 -44 16 -9 15 -16 -8 -95 -28 -91 -36 -219 -21 -315 7 -43 4 -55
-15 -85 l-23 -35 -5 75 -5 75 -27 -165 c-49 -298 -61 -403 -61 -540 0 -74 1
-144 2 -155 1 -11 -4 -92 -11 -180 -17 -217 -14 -266 16 -354 52 -149 149
-282 255 -350 61 -39 75 -40 26 -1 -21 16 -33 30 -27 30 6 0 61 -17 124 -37
l113 -38 265 0 c207 1 281 4 340 17 158 35 259 88 319 170 l34 46 34 -56 c19
-32 46 -68 61 -82 15 -14 21 -18 14 -10 -39 46 19 21 158 -69 107 -69 159 -80
383 -81 213 0 263 6 412 52 139 42 190 70 228 124 29 41 35 45 62 39 90 -18
321 -55 348 -55 18 0 39 4 46 9 9 6 22 6 32 0 9 -5 79 -17 156 -26 149 -19
498 -22 583 -4 42 8 43 9 11 10 -28 1 -32 3 -21 16 18 22 69 32 217 44 179 14
262 45 309 113 56 82 93 230 94 376 0 29 13 107 30 172 16 65 30 122 30 125 0
3 -16 3 -35 -1 -31 -5 -35 -4 -41 21 -9 35 0 91 41 270 38 169 58 321 48 380
l-6 40 -18 -40 -17 -40 5 40 c8 62 40 156 98 284 29 64 59 136 66 161 l14 44
11 -39 11 -40 11 45 c9 43 10 42 11 -40 1 -47 4 -96 7 -110 5 -23 4 -23 -13 5
l-18 30 -6 -75 c-3 -46 -6 -59 -7 -33 -1 23 -7 45 -14 49 -14 9 -5 -201 12
-259 13 -43 65 -107 87 -107 12 0 14 -7 9 -27 -15 -63 -17 -228 -4 -279 10
-34 11 -59 5 -77 -13 -40 -27 -23 -28 36 l-1 52 -9 -50 c-16 -86 -16 -542 0
-603 15 -59 4 -142 -30 -240 -11 -29 -19 -73 -19 -97 0 -57 38 -103 112 -136
46 -20 71 -24 188 -25 74 -1 119 1 100 5 l-35 7 48 12 c32 8 134 12 313 13
196 0 287 4 346 15 120 23 182 49 213 90 24 31 95 173 95 189 0 3 -12 4 -27 3
-27 -3 -28 -1 -26 39 1 24 29 123 62 220 58 169 91 298 91 346 -1 21 -1 21
-16 -3 l-15 -25 7 25 c9 35 68 146 147 274 51 82 65 100 61 75 -10 -53 11 -24
35 48 27 79 27 110 1 118 -25 8 -33 39 -22 90 7 37 10 40 39 37 29 -3 32 0 52
52 25 67 37 137 56 336 19 190 41 325 67 408 20 65 19 91 -2 53 -6 -12 -16
-21 -22 -21 -21 0 0 107 57 295 69 227 84 298 86 395 1 41 4 64 6 50 11 -57
22 -39 22 36 0 54 12 127 36 234 20 85 42 188 50 228 12 59 21 78 44 98 37 30
102 156 185 357 113 269 179 387 219 387 15 0 29 13 46 43 56 100 194 317 202
317 22 0 186 270 219 362 27 73 40 94 50 78 7 -11 127 129 233 271 47 63 143
219 219 358 12 22 24 31 42 31 17 0 32 11 47 33 12 17 140 151 284 297 143
146 283 290 310 320 28 30 53 55 56 55 4 0 36 32 73 71 71 77 212 203 357 319
85 68 92 72 109 56 9 -9 16 -17 16 -17 -1 -1 -42 -35 -92 -76 -50 -42 -139
-121 -199 -177 -59 -56 -129 -113 -155 -126 -120 -61 -210 -163 -394 -444 -59
-91 -136 -194 -170 -230 -34 -36 -68 -79 -76 -95 -21 -41 -143 -151 -225 -204
-119 -75 -146 -112 -83 -112 29 0 30 -1 15 -18 -10 -10 -17 -26 -17 -35 0 -17
34 -32 50 -22 13 8 13 7 -5 -46 -10 -28 -27 -51 -47 -64 -18 -12 -49 -52 -73
-95 -30 -54 -52 -81 -79 -95 -20 -11 -36 -28 -36 -37 0 -10 -21 -64 -46 -120
-26 -57 -57 -131 -70 -166 -13 -34 -68 -128 -121 -209 -54 -81 -102 -154 -108
-162 -37 -59 -149 -211 -279 -381 -8 -10 -2 -9 17 4 29 18 29 18 22 -4 -4 -12
-24 -56 -46 -98 -21 -42 -39 -81 -39 -87 1 -5 17 21 36 58 28 56 38 66 49 57
23 -19 -5 -76 -102 -206 -82 -108 -90 -124 -96 -174 -3 -37 -30 -114 -84 -240
l-80 -185 -41 -3 c-23 -2 -42 -7 -42 -12 0 -6 9 -32 19 -60 l19 -50 -24 -77
c-14 -43 -61 -213 -105 -378 -44 -165 -91 -336 -105 -380 -14 -44 -27 -88 -30
-97 -4 -12 0 -15 16 -11 28 7 26 -14 -9 -96 -37 -86 -45 -125 -32 -149 8 -15
5 -24 -13 -41 l-24 -23 -8 24 c-6 17 -12 -3 -25 -82 -10 -58 -27 -148 -38
-200 -22 -102 -26 -163 -12 -222 10 -41 -1 -51 -19 -18 -17 33 -32 24 -24 -15
3 -19 3 -47 -1 -62 -7 -26 -8 -26 -15 -8 -5 11 -9 34 -10 50 -2 51 -18 -1 -19
-62 -2 -119 38 -204 110 -233 24 -10 30 -18 26 -34 -3 -12 -13 -49 -23 -84
-16 -59 -16 -67 0 -129 14 -60 15 -69 1 -90 -22 -33 -35 -20 -36 35 -1 43 -1
45 -9 17 -13 -44 -50 -304 -50 -350 0 -58 -18 -31 -23 35 -3 30 -3 8 -2 -50 4
-119 30 -207 74 -250 14 -14 35 -42 46 -64 42 -83 198 -194 304 -217 43 -9 50
-13 40 -25 -6 -8 -29 -14 -52 -14 -27 0 -38 -3 -31 -10 13 -13 182 7 211 25
12 8 48 16 80 16 32 1 48 4 36 6 -13 2 -23 8 -23 12 0 12 48 31 76 31 32 0
129 -27 169 -48 l30 -15 -23 25 -23 25 133 0 c114 -1 141 2 189 21 65 26 173
104 217 157 49 61 115 210 83 190 -10 -5 -12 14 -9 84 2 50 1 91 -2 91 -3 0
-14 -16 -24 -35 -34 -62 -27 -31 13 62 53 122 81 216 81 272 l0 46 -21 -30
c-19 -28 -20 -28 -13 -5 3 14 16 43 27 65 l20 40 18 -50 c10 -27 18 -61 19
-75 1 -23 2 -23 10 -5 5 11 9 36 10 55 2 32 3 33 9 10 5 -16 14 -24 25 -23 16
1 18 -4 12 -45 -11 -82 -56 -276 -68 -297 -8 -13 -11 -57 -10 -123 2 -94 -5
-150 -23 -195 -4 -10 -3 -17 4 -17 6 0 11 5 11 12 0 6 8 21 19 32 16 19 17 30
10 101 -11 101 -2 180 17 164 21 -18 30 21 37 156 6 126 22 190 73 292 14 29
24 58 21 65 -2 7 -14 -7 -25 -32 -18 -38 -20 -40 -17 -15 3 17 7 74 11 127 6
96 24 147 24 71 l1 -38 15 35 c23 53 32 105 22 124 -7 12 -3 27 11 52 12 19
21 50 21 67 0 55 19 109 36 103 12 -5 14 -1 7 17 -4 12 -8 117 -8 234 l0 212
26 28 c14 15 31 42 38 60 7 17 21 39 32 49 23 20 25 36 4 28 -22 -9 -19 36 11
161 14 59 24 119 23 133 -3 30 106 264 148 319 21 27 22 33 9 33 -20 0 -21 30
-2 56 14 18 14 18 13 0 -1 -10 3 -21 10 -23 15 -5 27 35 15 50 -20 26 -23 66
-4 84 19 19 47 91 39 99 -3 3 -9 -8 -15 -23 -14 -43 -100 -173 -113 -173 -18
0 -4 107 31 234 41 150 39 145 51 124 16 -29 27 -21 34 25 10 56 29 86 76 120
52 36 59 34 48 -10 -15 -64 -10 -61 37 27 25 47 56 96 68 110 13 14 39 46 58
72 19 26 39 44 43 40 5 -4 5 1 2 11 -4 10 -3 16 1 13 5 -3 19 16 31 41 16 33
25 43 31 33 5 -9 -9 -41 -43 -94 -101 -162 -123 -202 -135 -248 -6 -27 -34
-101 -61 -165 -53 -127 -69 -183 -53 -183 6 0 13 13 17 30 4 20 13 30 24 30
10 0 29 9 43 19 22 18 20 10 -24 -102 -96 -238 -181 -545 -262 -945 -83 -406
-176 -1011 -227 -1478 l-22 -202 23 -58 c16 -38 42 -77 76 -111 67 -67 131
-88 243 -79 82 7 221 24 261 32 19 4 17 1 -10 -13 l-35 -17 35 -3 c31 -3 109
13 151 31 10 4 19 -1 28 -17 15 -28 57 -58 48 -34 -4 11 8 23 46 41 28 14 56
26 63 26 6 0 17 7 24 15 11 13 7 13 -26 -1 -62 -26 -134 -45 -144 -39 -22 13
-8 23 43 31 44 6 48 8 27 15 -48 14 -92 9 -133 -15 -50 -28 -92 -43 -83 -28
12 19 147 82 279 128 146 51 223 88 232 112 3 9 46 218 95 466 50 247 97 460
105 472 8 12 17 50 20 83 6 80 26 156 35 140 13 -20 55 -2 95 42 21 23 35 33
32 23 -14 -45 -71 -278 -92 -374 -20 -91 -23 -99 -24 -58 -2 87 -34 68 -49
-27 -10 -66 -4 -179 7 -136 8 28 31 41 26 14 -19 -91 -60 -268 -70 -308 -16
-60 -30 -247 -17 -225 5 8 12 57 15 108 4 69 10 97 22 105 10 8 19 41 25 102
13 109 43 242 70 303 22 49 28 89 9 62 -20 -31 22 177 52 251 11 30 27 70 35
89 16 41 18 147 4 152 -7 2 -7 24 -2 65 5 34 6 60 2 58 -4 -2 -22 -43 -40 -91
-19 -48 -36 -82 -38 -75 -7 20 18 115 44 164 13 26 22 53 18 59 -4 5 -6 56 -5
112 2 112 45 297 82 349 11 16 19 41 18 60 -1 17 10 73 25 122 35 116 106 326
117 345 15 27 10 -5 -11 -65 -23 -66 -23 -68 -11 -61 4 3 14 27 21 53 8 27 28
83 47 126 34 81 45 135 18 87 -8 -14 -14 -20 -14 -15 -1 10 108 234 109 225 0
-3 -6 -27 -14 -55 -7 -27 -11 -55 -9 -62 9 -26 -108 -387 -134 -413 -9 -10 -7
3 8 40 12 30 24 73 25 95 l3 40 -9 -41 c-5 -23 -22 -69 -39 -102 -35 -70 -81
-201 -81 -231 0 -33 15 -25 35 19 10 22 19 39 21 38 9 -10 -56 -340 -83 -415
-5 -14 -3 -15 7 -6 20 18 77 142 67 146 -5 1 5 56 24 121 27 98 35 115 45 102
12 -17 14 -11 40 99 2 11 -7 -2 -20 -30 -23 -48 -24 -49 -25 -20 -1 17 3 35 8
40 5 6 28 53 51 105 22 52 52 112 65 132 27 40 31 53 15 43 -10 -6 16 62 30
80 5 6 11 23 14 39 3 15 11 38 19 50 16 26 49 106 42 106 -2 0 -23 -37 -46
-82 -22 -45 -48 -92 -56 -103 -14 -19 -15 -19 -9 10 14 65 102 295 113 295 7
0 20 24 28 54 10 35 30 70 56 98 36 38 39 40 29 15 -23 -63 -7 -47 38 38 26
50 69 125 95 168 26 43 92 169 146 281 54 111 118 234 143 272 24 38 85 136
134 218 49 82 107 168 129 191 156 163 256 278 287 325 40 62 190 210 213 210
9 0 48 28 88 63 187 161 239 202 343 270 39 26 144 108 235 183 90 75 190 156
222 181 31 24 57 52 58 61 0 10 77 77 175 155 116 92 174 144 170 153 -11 29
231 183 482 308 81 41 199 104 262 141 159 93 276 150 367 181 43 14 96 33
118 44 51 23 207 56 307 65 75 6 104 19 78 35 -8 5 -3 10 14 14 27 7 34 20 16
31 -14 8 57 45 74 39 7 -3 50 7 97 22 46 14 104 28 129 30 43 4 342 98 387
122 12 7 69 19 128 27 58 8 111 17 116 21 6 3 21 -1 34 -10 22 -14 30 -13 111
14 87 30 126 34 174 21 l25 -7 -30 -18 -30 -17 29 6 c129 27 342 57 441 62
173 8 203 8 370 -5 83 -6 247 -16 365 -22 264 -13 450 -33 640 -67 80 -14 158
-28 174 -31 20 -3 27 -1 22 7 -9 15 -12 15 89 -14 49 -14 106 -27 127 -29 43
-4 77 -25 43 -27 -11 0 18 -9 65 -18 47 -10 137 -32 200 -49 63 -17 134 -33
158 -37 23 -4 40 -10 37 -15 -6 -9 18 -20 48 -21 20 -1 20 -2 -3 -8 -21 -6
-13 -10 47 -24 89 -21 165 -22 202 -2 26 13 34 12 107 -20 43 -19 109 -40 146
-47 37 -7 78 -20 90 -30 22 -17 21 -17 -27 -3 -27 8 -51 13 -53 11 -11 -12
245 -88 406 -122 82 -17 83 -17 138 5 39 17 67 22 95 18 l39 -5 -18 31 c-11
18 -45 77 -77 132 -32 55 -76 120 -99 145 -41 46 -65 64 -51 39 4 -8 -13 6
-39 31 -25 24 -46 46 -46 48 0 8 83 -14 174 -45 59 -20 101 -30 105 -25 3 6
19 -8 36 -29 l30 -40 25 32 26 31 73 -31 c40 -17 77 -31 82 -31 5 0 -7 25 -26
55 -30 46 -33 55 -18 55 10 -1 29 -7 43 -16 l25 -15 -25 6 c-23 5 -23 5 -8 -8
10 -8 122 -46 250 -85 279 -85 292 -88 287 -74 -2 6 -71 97 -152 202 -116 150
-153 191 -167 187 -22 -6 -60 18 -60 38 0 7 -6 15 -12 18 -10 3 -10 7 -1 17 9
10 9 19 -3 41 -8 16 -13 29 -10 29 2 0 46 -16 98 -36 51 -19 120 -42 153 -49
33 -8 61 -19 63 -25 2 -5 19 -10 37 -10 59 0 217 -42 289 -76 39 -19 81 -34
94 -34 14 0 37 -14 56 -35 33 -35 66 -46 66 -22 1 42 16 38 381 -118 200 -85
367 -154 371 -152 3 1 -144 111 -327 245 -323 236 -333 244 -323 268 6 13 8
27 5 31 -4 3 -36 8 -72 9 -66 3 -133 29 -168 65 -10 11 -22 17 -27 14 -24 -15
-256 114 -270 150 -6 16 -44 38 -139 81 -82 37 -131 65 -131 74 0 8 -7 74 -14
145 -8 72 -13 130 -13 131 1 0 175 -23 387 -52 212 -29 391 -52 398 -51 8 1
-145 101 -340 221 -194 121 -354 220 -356 221 -1 2 5 22 14 46 20 53 22 98 3
110 -20 12 -23 3 -10 -30 10 -24 10 -34 -3 -59 -15 -29 -17 -30 -52 -19 -42
13 -79 66 -47 68 13 0 10 4 -9 13 -16 6 -43 26 -60 43 -18 16 -51 42 -73 57
-49 32 -45 32 101 1 64 -14 119 -23 122 -21 2 3 -13 33 -35 68 -22 35 -43 69
-47 76 -6 10 -1 10 26 -1 18 -8 131 -56 251 -107 120 -51 220 -90 222 -88 2 2
-43 89 -100 193 -57 105 -104 193 -105 198 0 14 33 6 195 -48 91 -30 180 -55
197 -55 39 0 28 13 -25 30 -28 9 -36 15 -28 23 17 17 14 24 -25 67 -20 22 -34
40 -32 40 12 0 335 -123 343 -131 6 -6 -9 -27 -40 -59 -48 -49 -48 -49 -78
-34 l-29 16 7 -40 c6 -35 3 -44 -25 -76 -18 -20 -27 -36 -22 -36 6 0 24 17 41
38 23 27 44 40 79 49 40 9 44 12 25 18 -13 4 -23 10 -23 14 0 3 70 80 154 171
85 91 152 167 149 170 -2 3 -16 -8 -29 -23 -23 -26 -25 -27 -46 -13 -45 32
-65 11 -28 -28 19 -21 19 -21 -47 -88 l-65 -68 -167 158 c-299 283 -429 396
-516 448 -46 28 -189 101 -317 163 l-233 113 -16 47 c-9 25 -19 54 -23 64 -7
14 -3 17 27 17 56 0 51 14 -14 39 -33 12 -63 31 -69 40 -6 13 87 -18 337 -111
190 -71 348 -127 350 -125 2 3 -89 107 -203 233 l-207 229 44 6 44 6 -45 1
c-51 2 -79 18 -110 62 l-21 30 58 -24 c60 -25 927 -230 945 -224 6 2 -118 130
-275 283 -247 242 -293 282 -336 298 -59 21 -211 131 -211 153 0 8 7 28 15 44
9 17 13 30 11 30 -3 0 -13 -15 -22 -32 -9 -18 -18 -34 -19 -36 -2 -2 -50 23
-107 56 -56 33 -141 81 -188 107 -47 26 -77 44 -67 41 69 -22 181 -45 447 -91
167 -30 306 -53 307 -51 1 1 -13 28 -33 60 -19 32 -33 60 -31 62 2 2 90 -12
196 -30 149 -26 191 -30 187 -20 -3 8 -3 14 1 14 3 0 64 -20 135 -45 71 -25
132 -45 134 -45 3 0 -6 15 -19 33 -13 17 -27 37 -30 43 -4 6 35 1 96 -12 56
-13 106 -24 112 -24 5 0 -35 45 -90 100 l-99 99 84 3 84 3 -122 75 -121 75 31
16 32 17 -55 7 c-29 4 -64 9 -75 10 -25 3 -104 54 -104 66 0 5 -9 9 -21 9 -11
0 -46 24 -77 54 -31 29 -75 66 -97 80 l-39 27 39 -6 c87 -13 450 -53 453 -50
8 7 -507 423 -582 469 -26 17 -44 32 -39 33 5 2 92 -14 193 -36 102 -22 187
-37 190 -35 2 3 -5 23 -18 44 l-22 40 22 -9 c13 -5 63 -28 112 -50 94 -44 98
-43 71 22 -10 23 6 22 130 -7 55 -14 101 -23 102 -22 2 1 -29 45 -68 97 l-70
94 83 9 c57 6 105 5 152 -3 38 -6 70 -10 72 -8 2 2 -83 86 -188 187 -106 101
-227 218 -270 261 -79 79 -336 290 -436 357 -77 53 -296 174 -469 261 -79 39
-143 72 -143 74 0 1 26 2 57 2 51 0 58 2 58 20 0 17 -8 20 -49 23 -41 3 -53
-1 -65 -17 -16 -20 -22 -18 -316 126 -193 94 -350 163 -440 194 -77 26 -135
48 -128 48 26 2 157 -31 318 -79 193 -57 300 -79 316 -63 8 8 -12 16 -66 29
-51 12 -71 20 -58 25 10 3 55 -7 102 -22 47 -16 96 -29 110 -29 47 0 7 17 -91
39 -84 19 -98 25 -98 42 0 11 -24 43 -52 71 -32 30 -45 48 -33 45 472 -140
511 -150 675 -177 187 -30 180 -34 120 55 -27 41 -50 76 -50 78 0 1 53 -3 118
-9 64 -7 133 -13 152 -13 l34 -1 -74 76 -75 76 70 -6 c39 -3 117 -8 175 -12
84 -5 189 -26 520 -105 228 -55 421 -101 428 -104 39 -14 -27 39 -383 311
-214 163 -454 348 -533 411 -79 64 -146 113 -149 110 -13 -14 125 -140 289
-263 200 -151 626 -480 647 -499 14 -14 -792 184 -821 201 -31 18 -328 238
-325 240 3 3 138 -36 405 -118 73 -22 135 -38 138 -36 5 6 -263 231 -391 328
-123 93 -345 218 -755 424 -614 307 -626 312 -1112 471 -241 79 -451 146 -468
150 -52 11 -33 26 29 23 33 -1 63 0 66 4 11 11 -38 37 -124 68 -87 30 -275
126 -328 166 -55 41 -37 12 35 -57 98 -96 118 -109 168 -109 24 0 69 -10 101
-22 l58 -23 -40 -5 c-36 -5 -38 -6 -20 -17 24 -15 15 -16 -20 -3 -100 38 -712
216 -881 256 -273 64 -820 152 -1388 224 -245 31 -302 41 -312 55 -11 15 -26
17 -111 13 -54 -3 -149 -1 -211 5 -105 10 -111 11 -82 23 25 11 30 18 30 48 0
45 -41 93 -129 152 -50 33 -60 44 -43 44 33 0 263 -27 517 -60 121 -16 259
-32 308 -36 48 -4 86 -9 84 -11 -2 -2 -40 -10 -83 -17 -96 -18 -114 -24 -114
-43 0 -42 196 -59 350 -30 l75 14 -75 8 c-67 8 -72 9 -42 17 35 9 42 24 15 32
-10 3 14 3 52 1 87 -6 453 -70 520 -91 28 -9 111 -19 185 -24 74 -5 167 -11
205 -14 39 -3 61 -3 50 0 -11 4 -26 11 -33 17 -8 6 -54 10 -110 9 -53 -1 -135
4 -182 11 -69 10 -84 15 -82 28 4 25 -20 30 -178 40 -226 13 -374 39 -553 95
-116 36 -127 39 -127 26 0 -5 25 -15 55 -22 30 -7 53 -15 51 -17 -6 -6 -357
17 -421 28 -33 6 -115 29 -182 50 -108 35 -131 39 -185 34 -99 -9 -167 -26
-162 -40 7 -17 -25 -24 -139 -32 -54 -3 -94 -9 -90 -13 4 -4 51 -17 103 -29
160 -36 250 -63 250 -74 0 -6 -43 -8 -127 -5 -107 5 -143 11 -222 37 -109 36
-102 35 -95 17 7 -18 -5 -22 -137 -41 -63 -9 -139 -25 -169 -34 -49 -16 -79
-17 -282 -11 -222 7 -227 8 -259 33 l-32 25 -44 -21 c-24 -12 -43 -25 -43 -29
0 -4 -71 -8 -157 -8 -183 0 -497 -14 -833 -36 -129 -8 -256 -12 -281 -9 -25 4
-83 1 -129 -5 -107 -15 -129 0 -39 28 35 11 79 23 97 27 32 7 42 20 20 27 -15
5 263 63 396 83 55 8 163 17 240 20 137 6 142 5 168 -17 l27 -23 -137 0 c-135
0 -202 -13 -202 -37 0 -6 7 -5 15 2 31 26 101 29 308 13 214 -16 302 -11 372
18 l30 12 -55 12 c-30 7 -80 17 -110 21 l-55 9 180 32 c238 43 354 55 508 51
70 -2 127 0 127 4 0 10 -91 38 -126 38 -18 0 -61 9 -96 20 -76 24 -73 23 -59
6z m-2643 -307 c51 -13 64 -31 44 -63 -8 -11 -20 -33 -27 -47 -12 -23 -22 -27
-97 -38 -47 -6 -169 -16 -273 -21 -218 -11 -313 -20 -313 -29 0 -3 48 -3 107
0 60 3 109 4 111 3 6 -4 -218 -53 -293 -64 -38 -6 -74 -15 -80 -19 -5 -4 -50
-16 -100 -25 -104 -20 -315 -73 -461 -115 -56 -16 -112 -32 -125 -35 -13 -4 2
7 35 25 36 19 55 34 49 40 -11 11 -283 -88 -283 -102 0 -5 10 -9 23 -10 12 0
-75 -33 -193 -74 -118 -40 -216 -71 -218 -70 -2 2 29 26 70 53 271 183 758
380 758 307 0 -8 6 -15 13 -15 7 0 96 22 198 49 189 51 262 76 454 155 200 83
476 126 601 95z m3617 -36 c-13 -2 -33 -2 -45 0 -13 2 -3 4 22 4 25 0 35 -2
23 -4z m84 -9 c-3 -3 -12 -4 -19 -1 -8 3 -5 6 6 6 11 1 17 -2 13 -5z m-5892
-390 c-102 -36 -377 -115 -388 -111 -23 7 235 100 328 117 133 24 143 23 60
-6z m-1535 -872 c-145 -66 -150 -65 -36 11 59 39 72 44 90 35 19 -10 14 -15
-54 -46z m6220 -126 c203 -48 216 -48 300 -6 64 32 137 34 245 4 17 -4 16 -2
-5 15 -39 32 -99 35 615 -24 784 -65 1064 -93 1103 -110 21 -10 64 -15 120
-15 48 0 94 -5 102 -10 13 -9 13 -10 -1 -10 -8 0 -24 -7 -35 -15 -18 -15 -16
-15 26 -10 25 3 66 11 92 16 37 9 76 6 190 -11 310 -46 681 -120 923 -184 112
-30 101 -32 -35 -6 -576 110 -1759 248 -2485 290 -210 12 -661 12 -939 0 -176
-7 -211 -6 -220 5 -9 12 -24 13 -80 5 -38 -6 -74 -14 -80 -19 -6 -5 -60 -12
-120 -16 l-109 -7 21 27 c12 15 19 31 16 36 -3 5 22 9 55 9 66 0 82 11 51 33
-16 11 -18 16 -8 24 38 30 41 30 258 -21z m-1019 -97 c-63 -22 -126 -48 -140
-58 -20 -14 -78 -25 -241 -43 l-215 -25 -31 24 -32 24 -43 -34 c-41 -31 -54
-34 -209 -56 -270 -37 -542 -88 -759 -142 -112 -27 -210 -48 -217 -45 -8 3
-52 -8 -98 -24 -91 -32 -106 -35 -106 -20 0 8 21 22 134 85 20 11 26 19 18 24
-12 7 132 74 270 126 88 32 243 71 346 86 80 11 85 11 105 -10 l21 -21 -54 0
c-103 0 -250 -43 -250 -72 0 -6 8 -4 19 6 31 28 79 36 271 46 102 5 208 14
235 20 59 12 125 40 125 52 0 4 -23 8 -52 8 -78 0 -46 16 59 29 68 8 103 8
135 0 36 -9 62 -8 158 10 158 30 174 31 640 49 14 0 -26 -17 -89 -39z m422
-26 c-13 -2 -35 -2 -50 0 -16 2 -5 4 22 4 28 0 40 -2 28 -4z m-120 -10 c-7 -2
-21 -2 -30 0 -10 3 -4 5 12 5 17 0 24 -2 18 -5z m-2458 -229 c-118 -49 -164
-64 -132 -44 20 13 23 36 5 43 -12 4 175 44 217 46 11 0 -29 -20 -90 -45z
m-468 -16 c9 -22 6 -25 -65 -50 -85 -31 -122 -35 -122 -13 0 15 53 46 119 70
50 19 57 18 68 -7z m320 6 c-3 -3 -34 -23 -69 -43 -62 -36 -67 -37 -166 -38
-56 -1 -102 3 -102 8 0 16 58 39 102 40 24 0 79 9 123 18 87 20 122 24 112 15z
m-4226 -140 c-126 -66 -166 -83 -172 -72 -4 7 -15 22 -23 33 -14 19 -15 17
-16 -26 l0 -46 -159 -92 c-88 -50 -161 -91 -164 -91 -9 0 -27 62 -27 91 0 16
8 37 19 48 40 40 607 238 686 240 11 0 -54 -38 -144 -85z m12587 -214 c89 -40
161 -74 159 -76 -3 -3 -409 126 -416 132 -3 2 4 13 15 23 22 22 2 28 242 -79z
m-8948 60 c12 -7 12 -14 2 -43 -7 -18 -12 -43 -12 -54 0 -18 -16 -28 -92 -57
-51 -19 -142 -49 -203 -66 -185 -52 -307 -91 -302 -96 3 -3 44 6 93 20 48 14
90 24 92 21 7 -6 -211 -110 -265 -125 -23 -7 -41 -16 -38 -19 2 -4 -87 -46
-198 -93 -111 -48 -254 -109 -317 -137 -63 -28 -104 -43 -90 -33 48 33 85 71
70 72 -21 0 -233 -113 -237 -127 -2 -6 3 -13 11 -15 8 -1 -57 -37 -146 -78
-238 -111 -234 -110 -158 -40 207 192 660 449 660 375 0 -19 -4 -20 87 19 180
77 296 143 452 260 56 42 144 96 195 122 160 79 348 124 396 94z m-930 -226
c-58 -31 -118 -58 -135 -60 -16 -2 -186 -82 -377 -178 -191 -96 -348 -170
-350 -165 -2 6 -35 -1 -78 -17 -132 -47 -200 -91 -100 -64 23 6 44 9 46 7 5
-4 -137 -68 -251 -113 -38 -15 -312 -164 -609 -331 -296 -167 -540 -302 -542
-300 -10 10 167 178 237 225 96 64 140 82 198 82 30 0 58 8 81 22 19 12 130
71 245 131 l210 108 -70 -6 c-38 -4 -79 -9 -90 -12 -26 -7 50 42 142 92 39 21
73 46 76 55 2 9 24 22 48 29 82 23 263 93 609 234 382 156 790 316 805 316 6
0 -37 -25 -95 -55z m-4522 -676 c-8 -13 -56 -92 -108 -176 -63 -103 -107 -163
-134 -185 -22 -18 -114 -94 -203 -169 -90 -76 -163 -134 -163 -130 0 30 160
267 253 374 47 55 67 71 102 80 36 10 64 32 152 120 59 59 109 108 111 108 3
0 -2 -10 -10 -22z m2632 -182 c0 -2 -7 -7 -16 -10 -8 -3 -12 -2 -9 4 6 10 25
14 25 6z m-540 -344 c0 -19 -92 -99 -147 -128 l-60 -32 31 48 c23 34 49 57 96
83 68 38 80 42 80 29z m-341 -235 c-12 -10 -99 -55 -99 -52 0 9 75 55 89 55 8
0 12 -1 10 -3z m504 -17 c-4 -3 -46 -33 -93 -65 l-85 -59 33 42 c52 66 99 100
128 94 14 -2 22 -8 17 -12z m14459 -119 c10 -30 17 -56 15 -57 -1 -1 -45 6
-97 18 -65 13 -101 26 -112 40 -34 38 -24 47 60 51 120 5 113 8 134 -52z
m-187 -31 c3 -6 -1 -7 -9 -4 -18 7 -21 14 -7 14 6 0 13 -4 16 -10z m-17911
-112 c-84 -88 -104 -103 -134 -106 l-35 -3 69 63 c58 53 182 147 195 148 2 0
-41 -46 -95 -102z m2494 -608 l-132 -110 -29 28 -29 27 7 -45 7 -46 -127 -109
c-136 -116 -131 -114 -161 -48 -31 71 -31 72 169 192 199 118 387 217 420 220
4 1 -52 -48 -125 -109z m15620 -282 c28 -40 50 -73 48 -75 -2 -2 -56 8 -120
23 -65 14 -120 23 -123 20 -3 -3 0 -13 8 -22 12 -15 12 -16 -1 -11 -8 3 -64
22 -123 42 -60 20 -106 39 -104 41 2 3 45 -4 96 -16 50 -11 93 -20 97 -20 3 0
-11 20 -32 45 l-36 45 119 0 120 0 51 -72z m-16348 -48 c12 -8 0 -25 -65 -88
-70 -67 -509 -430 -553 -457 -9 -5 -30 -18 -47 -29 -38 -23 51 61 334 317 124
111 241 217 260 234 39 35 48 38 71 23z m10763 -124 c-3 -13 1 -27 7 -31 25
-15 -52 -35 -134 -35 -62 1 -77 3 -63 11 11 6 30 9 43 6 29 -5 32 9 4 18 -11
3 -20 13 -20 20 0 18 51 33 116 34 49 1 51 0 47 -23z m-430 -73 c-7 -2 -21 -2
-30 0 -10 3 -4 5 12 5 17 0 24 -2 18 -5z m-466 -9 c-9 -10 -269 -24 -281 -16
-6 4 9 10 34 13 63 8 255 10 247 3z m-376 -18 c-7 -8 -46 -16 -109 -20 -175
-13 -474 -46 -641 -72 -90 -14 -169 -23 -176 -20 -7 2 -43 -4 -80 -15 -37 -11
-69 -18 -72 -15 -3 3 24 20 61 37 36 17 64 35 61 39 -3 5 23 18 57 29 51 16
102 21 263 27 110 3 270 10 355 14 268 12 294 12 281 -4z m-1721 -256 c0 -12
-7 -34 -15 -50 -17 -33 -57 -48 -293 -110 -84 -22 -161 -44 -170 -50 -24 -13
-6 -12 58 5 30 8 56 13 57 11 5 -4 -122 -60 -172 -76 -22 -7 -46 -17 -53 -23
-11 -9 -233 -105 -422 -183 l-35 -15 25 20 c52 41 5 33 -85 -14 -90 -47 -111
-64 -82 -65 15 -1 -58 -39 -183 -97 l-95 -43 40 35 c116 103 309 231 432 287
70 31 93 35 93 13 0 -11 18 -7 78 19 128 55 201 94 342 186 74 48 164 99 200
113 103 41 93 21 -27 -50 -35 -20 -63 -41 -63 -45 0 -4 36 6 81 22 44 17 82
30 85 30 2 0 3 4 2 10 -2 5 22 27 52 49 46 33 63 40 103 41 41 0 47 -3 47 -20z
m-8460 -133 c0 -2 -12 -14 -27 -28 l-28 -24 24 28 c23 25 31 32 31 24z m-107
-254 c-4 -10 -37 -87 -73 -171 l-66 -152 -135 -148 c-75 -81 -152 -165 -173
-187 l-36 -40 29 81 c36 100 99 227 157 317 35 54 53 72 87 86 35 15 61 41
126 125 45 58 84 106 86 106 2 0 1 -8 -2 -17z m-2514 -199 c3 -3 -94 -139
-119 -168 -5 -4 6 39 22 97 l31 106 31 -16 c17 -8 33 -17 35 -19z m2105 -56
c-137 -179 -248 -314 -338 -409 -56 -59 -123 -139 -151 -178 -27 -39 -65 -83
-84 -98 l-34 -26 29 49 c15 27 38 65 49 84 12 19 30 51 39 70 15 31 11 28 -31
-20 -26 -30 -60 -68 -75 -85 -14 -16 -29 -27 -33 -24 -3 4 2 37 12 73 15 57
15 68 4 76 -11 6 12 35 95 119 111 112 148 138 120 84 -8 -16 -26 -39 -40 -52
-19 -18 -23 -27 -15 -37 23 -28 83 26 299 265 84 92 188 186 197 177 3 -3 -17
-33 -43 -68z m6956 -131 c-104 -70 -237 -141 -261 -139 -18 1 -60 -19 -125
-59 -55 -34 -137 -84 -182 -113 -46 -28 -103 -68 -127 -88 -24 -21 -49 -38
-57 -38 -25 0 -152 -66 -248 -130 -52 -35 -178 -124 -280 -200 -102 -75 -210
-153 -241 -174 -46 -30 -55 -41 -52 -59 4 -19 -7 -31 -56 -66 -34 -23 -110
-81 -169 -129 l-107 -86 61 66 c36 39 67 83 74 105 9 28 44 70 138 161 70 68
111 114 92 103 -61 -38 -132 -72 -137 -68 -2 3 9 29 26 59 22 38 28 57 20 65
-7 7 3 18 35 37 74 43 169 86 191 86 17 -1 15 -5 -13 -30 -18 -17 -39 -30 -47
-30 -19 0 -19 -14 -1 -29 21 -18 79 8 240 108 170 106 218 131 246 131 11 0
61 27 110 60 204 137 423 259 710 395 183 87 218 101 160 62z m5420 -161 c0
-19 39 -46 66 -46 17 0 21 -5 17 -20 -4 -16 -14 -20 -52 -20 -54 0 -151 26
-151 40 0 6 18 10 39 10 46 0 58 12 35 34 -14 15 -13 16 15 16 20 0 31 -5 31
-14z m-5915 -384 c-6 -5 -35 -26 -65 -47 l-55 -38 45 46 c24 26 53 47 64 47
12 0 16 -3 11 -8z m1715 -493 c-41 -28 -69 -39 -64 -26 2 7 17 18 32 24 35 14
51 15 32 2z m-2551 -83 c-2 -2 -46 -34 -98 -71 l-94 -66 -20 20 c-12 11 -19
22 -16 25 10 9 205 95 218 95 8 1 12 -1 10 -3z m2381 -6 c-29 -19 -222 -91
-233 -87 -14 5 100 65 158 83 50 16 97 18 75 4z m-2617 -127 c6 -31 4 -34
-100 -108 -106 -75 -107 -75 -120 -53 -7 13 -12 37 -13 53 0 29 6 33 113 87
61 30 112 55 113 54 1 0 4 -15 7 -33z m2240 -40 c-26 -19 -89 -59 -139 -89
-76 -45 -99 -53 -133 -51 -22 1 -41 3 -41 4 0 4 226 127 282 153 34 16 65 27
71 23 5 -3 -13 -21 -40 -40z m-2648 -47 c-42 -37 -48 -46 -37 -59 12 -13 5
-22 -45 -62 -74 -58 -429 -301 -496 -338 -148 -83 -283 -199 -456 -393 -112
-126 -194 -212 -492 -515 -52 -52 -138 -130 -191 -172 -53 -42 -102 -86 -108
-97 -9 -18 -8 -20 15 -20 l26 0 -23 -31 c-18 -24 -20 -32 -9 -39 8 -4 20 -6
28 -3 18 7 17 1 -8 -50 -12 -24 -34 -52 -50 -63 -16 -10 -54 -58 -85 -107 -31
-48 -73 -102 -93 -119 -20 -17 -55 -68 -78 -112 -111 -210 -162 -315 -174
-356 -7 -25 -35 -74 -60 -110 -26 -36 -62 -92 -79 -125 -34 -65 -44 -75 -76
-75 -18 0 -25 -16 -53 -117 -34 -122 -58 -165 -113 -204 l-31 -23 6 49 c4 27
5 46 3 44 -9 -9 -183 -426 -210 -504 -6 -15 -9 -16 -15 -6 -11 17 -20 1 -68
-122 -45 -118 -58 -142 -103 -197 -118 -142 -331 -590 -447 -940 -58 -176
-196 -700 -184 -700 4 0 12 5 19 12 19 19 15 -5 -18 -122 -19 -66 -30 -124
-29 -155 1 -28 -4 -61 -11 -75 l-14 -25 -6 30 c-6 30 -6 30 -13 5 -4 -14 -7
-38 -7 -55 0 -64 -34 -318 -40 -295 -4 18 -14 26 -35 30 -33 6 -53 46 -54 107
-1 30 1 32 42 35 68 5 71 23 72 398 1 325 9 405 50 504 21 49 19 52 -11 17
-14 -17 -30 -29 -35 -25 -32 20 9 176 116 437 59 146 95 267 95 326 0 20 5 43
10 51 8 11 10 6 8 -20 -2 -19 2 -36 7 -37 6 -2 11 22 11 55 1 36 20 122 54
237 69 238 90 315 90 342 0 12 7 28 17 35 88 69 147 167 258 428 126 297 206
430 253 418 15 -4 31 15 77 91 119 194 197 311 205 306 10 -6 157 210 194 283
13 26 36 81 50 122 28 76 47 101 56 74 4 -10 43 28 120 117 160 182 242 295
335 459 77 136 81 141 110 139 25 -2 40 7 95 65 36 38 132 123 214 190 255
206 347 284 451 379 55 51 93 83 85 72 -8 -11 22 13 68 53 124 109 245 195
498 357 126 81 258 168 294 195 81 60 90 62 25 6z m2280 -132 c-26 -20 -55
-36 -55 -30 0 5 63 46 70 46 3 -1 -4 -8 -15 -16z m-287 -193 c-10 -17 -65 -37
-75 -27 -5 5 59 44 75 45 9 1 10 -3 0 -18z m-8393 -191 c-20 -39 -49 -112 -66
-162 -21 -62 -46 -112 -81 -160 -28 -39 -71 -109 -95 -157 -42 -81 -47 -87
-86 -97 l-42 -11 -40 -152 -40 -152 -59 -60 c-75 -76 -91 -77 -82 -6 5 46 -1
36 -53 -93 -32 -80 -74 -181 -93 -225 -19 -44 -50 -125 -68 -180 -40 -121 -38
-119 -56 -104 -8 6 -16 10 -18 8 -3 -4 -43 -106 -96 -245 -17 -45 -45 -101
-63 -124 -92 -120 -148 -215 -247 -415 -187 -380 -277 -626 -470 -1281 -60
-204 -114 -383 -119 -398 -11 -27 -3 -34 17 -14 30 30 22 -15 -27 -161 -44
-129 -53 -166 -48 -201 4 -34 1 -49 -16 -71 -11 -16 -24 -29 -29 -29 -15 0 -8
88 22 302 47 324 80 442 128 455 14 3 31 60 80 261 78 323 81 334 91 327 5 -2
14 14 20 38 57 213 92 372 106 477 9 69 21 136 27 150 10 24 11 24 18 5 6 -16
34 33 129 225 126 255 186 397 268 637 l48 142 36 6 c28 5 38 12 47 38 6 18
79 131 161 252 302 444 400 593 481 730 45 77 79 131 76 120 -11 -30 -1 -17
66 96 64 106 195 299 204 299 2 0 -12 -32 -31 -70z m8029 21 c-17 -16 -37 -30
-45 -33 -21 -7 1 -30 24 -24 11 3 16 1 11 -4 -24 -22 -188 -140 -195 -140 -5
0 0 18 11 41 12 23 19 47 17 54 -7 16 167 132 203 134 3 0 -9 -12 -26 -28z
m-2395 -288 c-29 -54 -60 -109 -68 -123 -17 -28 -273 -271 -279 -265 -8 8 86
175 139 246 43 58 65 79 88 84 21 4 52 30 97 81 37 41 68 74 71 74 2 0 -19
-44 -48 -97z m8082 -349 c-36 -15 -61 -13 -61 6 0 5 21 10 48 10 l47 -1 -34
-15z m-14117 -352 l25 -7 -49 -85 c-27 -47 -50 -79 -50 -71 0 7 5 54 12 102 9
69 14 86 24 78 7 -6 24 -13 38 -17z m5140 -67 c-40 -59 -63 -85 -77 -85 -18 0
-17 3 8 38 26 35 116 132 122 132 2 0 -22 -38 -53 -85z m12201 50 c17 -7 39
-20 50 -30 18 -15 18 -16 2 -11 -11 3 -52 16 -93 29 -41 12 -74 26 -74 30 0
11 75 -1 115 -18z m-4614 -31 c-41 -14 -76 -23 -78 -21 -7 7 102 46 127 45 14
0 -8 -11 -49 -24z m-546 -80 c-110 -93 -218 -164 -252 -164 -10 0 -43 -16 -73
-36 l-55 -36 70 71 c63 64 83 77 200 130 72 33 132 60 135 60 3 0 -8 -11 -25
-25z m-1125 -704 c0 -26 -9 -34 -81 -74 -45 -25 -83 -46 -85 -46 -2 0 -4 10
-4 23 1 16 22 38 78 79 42 31 80 54 84 52 5 -3 8 -18 8 -34z m-190 -131 c0 -3
-37 -25 -82 -49 -93 -48 -92 -44 2 28 58 44 79 50 80 21z m-4337 -219 c-37
-65 -50 -80 -69 -80 -24 0 -24 1 -9 30 13 25 109 130 120 130 2 0 -17 -36 -42
-80z m3587 -355 c-13 -14 -26 -22 -29 -19 -3 3 5 14 18 25 33 27 39 24 11 -6z
m-5879 -200 c-19 -35 -36 -63 -37 -62 -3 3 16 118 21 134 3 10 10 10 28 2 l25
-11 -37 -63z m-7170 -161 c-19 -68 -20 -69 -20 -26 -1 39 24 110 35 99 3 -2
-4 -35 -15 -73z m-38 -80 c-1 -95 -18 -165 -60 -239 l-33 -60 6 50 c12 93 54
336 60 347 14 22 27 -28 27 -98z m12551 -249 c-21 -24 -45 -47 -53 -50 -9 -3
6 17 34 44 27 28 51 51 53 51 1 0 -14 -20 -34 -45z m-214 -87 c-43 -95 -158
-309 -186 -346 -14 -18 -29 -30 -33 -27 -21 12 -122 -182 -175 -334 -20 -57
-54 -137 -76 -179 -38 -74 -94 -152 -109 -152 -3 0 -12 13 -18 29 -9 26 -7 37
24 92 19 34 61 102 94 151 59 88 95 157 45 86 -40 -56 -42 -46 -5 20 18 31 45
80 59 108 59 113 185 304 191 288 3 -12 18 4 47 54 23 39 42 78 42 87 0 15
115 185 125 185 2 0 -9 -28 -25 -62z m-1553 -85 c-29 -53 -120 -203 -124 -203
-5 0 9 26 69 128 27 45 51 82 54 82 3 0 3 -3 1 -7z m-142 -243 c-9 -16 -18
-30 -21 -30 -2 0 2 14 11 30 9 17 18 30 21 30 2 0 -2 -13 -11 -30z m-35 -60
c-6 -11 -13 -20 -16 -20 -2 0 0 9 6 20 6 11 13 20 16 20 2 0 0 -9 -6 -20z
m-32 -52 c-8 -13 -45 -74 -82 -135 -37 -62 -69 -113 -72 -113 -9 0 89 185 101
193 8 4 23 23 35 42 12 19 24 35 27 35 3 0 -1 -10 -9 -22z m-358 -397 c0 -14
-76 -124 -104 -150 -14 -14 -26 -21 -26 -17 0 16 63 132 82 154 22 22 48 30
48 13z m-2019 -508 c-12 -20 -14 -14 -5 12 4 9 9 14 11 11 3 -2 0 -13 -6 -23z
m-6908 -279 c-21 -94 -27 -147 -27 -251 -1 -73 -2 -133 -3 -133 -2 0 -10 16
-18 37 -12 28 -14 67 -12 177 4 138 5 142 35 190 17 26 34 61 37 78 4 16 9 28
11 26 2 -2 -8 -58 -23 -124z m10088 -111 c-12 -20 -14 -14 -5 12 4 9 9 14 11
11 3 -2 0 -13 -6 -23z m-1501 -3 c0 -5 -5 -10 -11 -10 -5 0 -7 5 -4 10 3 6 8
10 11 10 2 0 4 -4 4 -10z m-263 -686 c-5 -87 -16 -124 -37 -124 -22 0 -19 61
5 138 14 45 29 82 32 82 3 0 3 -43 0 -96z m-8211 -139 c-9 -75 -26 -85 -26
-17 0 27 23 92 33 92 2 0 -2 -34 -7 -75z m-39 -41 c23 -62 12 -196 -20 -264
l-27 -55 0 85 c0 138 12 281 23 277 6 -2 17 -21 24 -43z m4733 -584 c-6 -37
-8 -40 -9 -13 -1 29 8 68 14 61 1 -2 -1 -23 -5 -48z m-25 -29 c23 -45 29 -158
12 -206 l-15 -40 -5 35 c-9 55 -19 240 -13 240 3 0 12 -13 21 -29z m3400 -58
c-8 -54 -10 -58 -24 -48 -6 3 -11 26 -11 51 0 38 3 44 21 44 20 0 21 -4 14
-47z m-56 -290 c-5 -32 -12 -74 -15 -93 l-6 -35 -19 53 -18 54 31 39 c17 21
32 39 33 39 1 0 -2 -26 -6 -57z m-1474 -10 c-8 -47 -8 -47 -16 -18 -6 20 -5
38 3 52 17 33 21 21 13 -34z m-33 -24 c26 -50 23 -116 -7 -164 l-24 -40 -1 40
c0 22 -3 78 -7 124 -5 69 -4 83 8 79 8 -2 22 -20 31 -39z m1248 -633 c0 -14
-4 -28 -10 -31 -6 -4 -10 7 -10 24 0 17 5 31 10 31 6 0 10 -11 10 -24z"/>
<path d="M16120 20755 c-52 -12 -148 -34 -214 -49 -115 -24 -134 -31 -125 -41
8 -7 233 36 246 47 7 6 63 23 125 38 62 15 102 28 88 28 -14 0 -68 -10 -120
-23z"/>
<path d="M18412 17244 c-141 -20 -172 -28 -161 -38 6 -5 147 11 204 24 28 6
82 17 120 24 117 23 10 16 -163 -10z"/>
<path d="M19175 22793 c-55 -6 -64 -19 -18 -27 21 -4 47 -10 59 -12 15 -4 23
2 32 20 13 29 17 28 -73 19z"/>
<path d="M19672 22745 c-57 -13 -106 -26 -109 -29 -8 -8 101 -8 148 0 36 6
108 54 79 53 -8 -1 -61 -11 -118 -24z"/>
<path d="M16815 22714 c-83 -25 -135 -46 -135 -55 0 -11 64 -10 139 0 37 5 60
15 72 29 9 12 22 22 28 22 5 0 13 5 16 10 9 15 -62 11 -120 -6z"/>
<path d="M18640 22664 c-8 -1 -41 -6 -72 -9 -122 -13 -40 -45 111 -44 88 1
197 14 154 18 -7 0 -13 7 -13 15 0 8 -7 17 -16 20 -16 6 -136 6 -164 0z"/>
<path d="M9553 22643 c-64 -22 -135 -92 -167 -162 -92 -205 -43 -446 146 -723
79 -116 172 -201 267 -247 73 -35 80 -36 186 -36 100 0 115 3 166 27 109 54
196 174 220 302 21 117 -15 217 -74 202 -39 -9 -50 -38 -38 -94 18 -89 -16
-190 -90 -262 -57 -55 -112 -74 -202 -68 -93 6 -162 39 -240 116 -79 77 -203
262 -185 276 1 2 118 67 258 145 140 79 262 151 271 161 25 29 13 62 -60 152
-146 182 -317 261 -458 211z m200 -130 c44 -22 205 -169 195 -178 -10 -10
-449 -255 -457 -255 -16 0 -36 102 -36 185 0 135 45 227 130 267 49 23 96 18
168 -19z"/>
<path d="M21158 22641 c-91 -3 -170 -10 -175 -15 -4 -5 45 -6 117 -2 141 8
271 -7 428 -49 51 -14 102 -25 113 -25 31 0 22 25 -16 46 -20 11 -30 21 -23
25 6 4 4 9 -8 12 -34 10 -266 14 -436 8z"/>
<path d="M18930 22631 l-55 -6 75 -6 c41 -3 79 -4 84 -1 11 6 -15 22 -34 20
-8 -1 -40 -4 -70 -7z"/>
<path d="M17780 22530 c-36 -4 -135 -11 -220 -15 -199 -10 -241 -25 -55 -21
150 4 344 22 385 36 23 8 22 8 -10 8 -19 0 -64 -4 -100 -8z"/>
<path d="M22173 22443 c37 -2 96 -2 130 0 34 2 4 3 -68 3 -71 0 -99 -1 -62 -3z"/>
<path d="M11459 22394 c-9 -11 -14 -47 -15 -108 -1 -73 -6 -105 -28 -161 -39
-100 -41 -113 -21 -135 23 -25 59 -26 83 -2 10 10 31 56 47 103 23 69 28 102
29 187 1 92 -1 105 -18 118 -26 19 -60 18 -77 -2z"/>
<path d="M22390 22335 c28 -30 26 -30 -62 -4 -39 11 -72 19 -74 16 -2 -2 47
-18 108 -36 62 -18 130 -38 151 -46 50 -18 47 -6 -11 32 -94 62 -154 83 -112
38z"/>
<path d="M21431 22345 c5 -4 188 -75 195 -75 3 0 2 5 -2 12 -5 8 5 9 37 4 107
-17 124 -18 144 -3 11 9 17 18 14 21 -3 4 -84 15 -180 26 -179 21 -216 23
-208 15z"/>
<path d="M22535 22201 l-20 -8 20 -6 c11 -3 40 -9 65 -12 25 -4 94 -25 154
-46 60 -22 111 -39 114 -39 2 0 2 7 -2 15 -4 10 1 15 16 15 54 0 -7 19 -126
39 -72 12 -145 29 -164 37 -19 8 -35 14 -36 13 0 0 -10 -4 -21 -8z"/>
<path d="M23060 22188 c0 -8 11 -25 25 -38 14 -13 25 -27 25 -30 0 -4 -44 1
-97 11 -54 11 -102 17 -108 15 -21 -7 143 -50 200 -52 33 -1 85 -4 115 -8 l55
-6 -85 41 c-47 22 -95 50 -107 61 -18 17 -23 18 -23 6z"/>
<path d="M8747 22129 c-86 -20 -151 -82 -188 -178 -29 -76 -37 -238 -16 -337
38 -178 122 -329 262 -470 82 -83 114 -108 179 -140 75 -37 86 -39 170 -39 79
0 98 4 147 28 70 34 142 109 177 185 25 52 27 67 27 182 l0 125 -42 88 c-48
100 -75 121 -118 93 -34 -22 -32 -45 13 -134 32 -65 37 -87 40 -156 5 -111
-20 -178 -89 -240 -166 -149 -416 -19 -584 305 -109 210 -113 453 -9 550 22
21 35 24 97 24 62 0 81 -5 136 -33 73 -38 106 -37 122 5 7 20 6 32 -7 50 -19
29 -116 76 -192 92 -60 12 -72 13 -125 0z"/>
<path d="M7962 22055 c-24 -18 -30 -63 -10 -83 21 -21 66 -14 83 12 12 18 13
30 6 50 -6 14 -15 26 -20 26 -5 0 -15 2 -23 5 -7 3 -23 -2 -36 -10z"/>
<path d="M25983 21970 c-32 -13 -48 -47 -35 -75 15 -32 47 -40 78 -20 49 32
12 116 -43 95z"/>
<path d="M23201 21950 c-19 -11 -7 -26 45 -56 38 -22 49 -25 70 -16 13 7 24
18 24 27 0 12 13 15 58 16 l57 1 -70 13 c-109 19 -170 24 -184 15z"/>
<path d="M24210 21791 c0 -26 84 -77 176 -108 53 -18 99 -31 101 -29 3 2 -13
16 -34 32 -21 15 -54 39 -73 54 -61 46 -170 78 -170 51z"/>
<path d="M8148 21745 c-8 -18 -8 -32 -1 -47 6 -13 107 -156 224 -318 117 -162
269 -377 337 -477 131 -194 152 -214 192 -178 11 10 20 29 20 42 0 31 -139
236 -452 671 -235 324 -241 332 -274 332 -27 0 -37 -5 -46 -25z"/>
<path d="M24095 21752 c6 -5 28 -15 50 -22 21 -7 46 -21 55 -32 10 -12 47 -25
109 -38 52 -11 96 -19 97 -17 2 2 -41 18 -94 36 -53 19 -110 42 -127 51 -35
20 -106 38 -90 22z"/>
<path d="M23930 21717 c7 -7 444 -137 448 -132 6 6 -362 124 -408 131 -25 4
-43 4 -40 1z"/>
<path d="M24510 21576 c0 -2 22 -18 49 -36 56 -35 89 -69 58 -57 -11 4 -31 10
-45 13 l-27 5 27 -16 c34 -19 163 -71 201 -80 44 -11 33 16 -20 51 -45 30
-226 124 -238 124 -3 0 -5 -2 -5 -4z"/>
<path d="M24796 21481 c-14 -6 5 -18 78 -49 108 -47 147 -54 107 -22 -13 11
-35 23 -50 27 -14 3 -46 16 -71 28 -27 14 -52 20 -64 16z"/>
<path d="M7732 21444 c-122 -61 -185 -211 -161 -383 41 -296 305 -626 568
-711 133 -43 255 -14 348 82 65 67 87 126 87 233 1 197 -112 417 -305 599
-196 185 -395 251 -537 180z m240 -108 c157 -64 350 -262 438 -448 45 -96 66
-201 52 -267 -19 -90 -73 -149 -157 -172 -170 -47 -434 161 -565 445 -68 148
-80 271 -35 363 51 102 144 130 267 79z"/>
<path d="M7209 21046 c-14 -7 -25 -22 -27 -36 -1 -16 82 -206 222 -505 123
-264 223 -481 221 -483 -6 -7 -95 55 -489 336 -363 259 -401 284 -425 276 -37
-13 -50 -57 -26 -84 31 -34 800 -579 914 -647 119 -72 159 -80 187 -38 16 24
15 29 -4 83 -11 31 -130 291 -264 576 -256 546 -257 548 -309 522z"/>
<path d="M25332 20922 c8 -21 128 -121 181 -150 31 -18 57 -30 57 -28 0 5
-169 148 -200 169 -26 18 -44 22 -38 9z"/>
<path d="M6019 19986 c-33 -16 -37 -61 -8 -92 l22 -24 -24 0 c-39 0 -122 -44
-153 -81 -60 -70 -71 -111 -70 -254 0 -113 4 -140 27 -210 70 -210 265 -448
439 -534 115 -58 247 -65 345 -19 57 27 133 100 161 154 27 54 45 141 40 198
l-3 48 115 -119 c179 -186 220 -277 168 -368 -46 -78 -166 -135 -286 -135 -76
0 -112 -17 -112 -54 0 -48 21 -60 107 -59 178 1 330 80 392 205 69 138 31 257
-143 444 -147 159 -936 891 -975 906 -10 3 -29 1 -42 -6z m154 -259 c53 -24
116 -78 333 -287 83 -80 118 -121 138 -163 79 -167 43 -331 -88 -400 -31 -16
-59 -21 -112 -22 -60 0 -79 5 -137 34 -123 62 -274 225 -346 374 -104 211 -90
436 29 486 37 16 123 6 183 -22z"/>
<path d="M24706 19957 c18 -59 24 -68 42 -63 9 2 37 8 62 11 73 11 76 20 13
34 -32 7 -73 19 -91 27 -32 13 -33 13 -26 -9z"/>
<path d="M5112 19558 c-21 -21 -14 -66 13 -84 51 -33 104 21 71 71 -18 27 -63
34 -84 13z"/>
<path d="M26003 19374 c-4 -11 2 -23 18 -35 29 -22 52 -24 68 -5 9 11 5 18
-22 35 -41 25 -56 26 -64 5z"/>
<path d="M5368 19305 c-7 -16 -8 -32 -2 -44 5 -10 153 -144 329 -298 176 -153
376 -332 445 -396 90 -84 132 -116 151 -117 33 0 49 17 49 55 0 26 -19 48
-143 161 -78 73 -279 252 -447 398 -266 233 -309 266 -337 266 -26 0 -36 -6
-45 -25z"/>
<path d="M5120 18941 c-155 -48 -245 -201 -211 -361 6 -29 10 -54 8 -56 -2 -2
-114 88 -250 200 -136 112 -254 206 -262 210 -26 10 -64 -12 -71 -40 -5 -21 0
-32 27 -59 27 -26 817 -680 1218 -1008 93 -76 124 -83 150 -35 14 25 14 29 -6
56 l-21 28 55 17 c155 48 245 173 245 342 0 145 -72 285 -232 446 -127 129
-280 223 -411 254 -67 15 -196 19 -239 6z m272 -131 c171 -64 374 -252 463
-430 33 -64 45 -175 26 -232 -16 -49 -78 -117 -125 -139 -50 -22 -138 -25
-194 -5 -52 19 -304 227 -395 327 -93 102 -141 198 -146 296 -2 43 2 86 9 102
16 40 60 80 106 97 54 20 183 12 256 -16z"/>
<path d="M26157 18273 c-10 -10 24 -43 44 -43 27 0 35 21 14 37 -20 14 -47 17
-58 6z"/>
<path d="M25520 17302 c0 -37 51 -57 78 -30 9 9 6 16 -16 30 -35 23 -62 23
-62 0z"/>
<path d="M3850 17294 c-134 -48 -207 -181 -181 -334 15 -96 79 -217 158 -301
102 -108 303 -233 456 -283 300 -99 581 51 604 322 9 114 -33 242 -100 298
-34 29 -58 30 -80 6 -25 -28 -21 -57 17 -107 66 -86 70 -210 10 -312 -60 -102
-212 -153 -359 -119 -68 16 -265 107 -314 145 l-24 18 173 257 c202 299 199
289 90 343 -116 57 -186 75 -300 79 -79 3 -116 0 -150 -12z m277 -119 c128
-40 130 -20 -35 -264 l-144 -213 -45 43 c-66 66 -115 171 -120 261 -3 63 -1
79 19 113 51 87 169 109 325 60z"/>
<path d="M5077 17232 c-24 -26 -21 -46 13 -93 38 -53 68 -134 80 -217 10 -70
25 -92 65 -92 30 0 55 31 55 67 0 50 -38 181 -70 242 -56 104 -105 136 -143
93z"/>
<path d="M2915 16870 c-35 -39 -14 -64 103 -126 184 -98 531 -288 962 -527
228 -126 425 -233 439 -238 57 -22 100 62 49 95 -41 26 -937 520 -1215 670
-149 80 -282 146 -295 146 -14 0 -33 -9 -43 -20z"/>
<path d="M25025 16302 c17 -17 148 -53 157 -44 6 6 -19 16 -59 26 -37 9 -77
19 -88 23 -14 3 -17 2 -10 -5z"/>
<path d="M3243 16240 c-122 -40 -201 -127 -223 -245 -12 -63 -9 -159 6 -213
l7 -23 -57 28 c-53 26 -59 27 -84 12 -33 -18 -40 -58 -15 -81 38 -33 1507
-798 1532 -798 35 0 51 17 51 52 0 34 -9 40 -273 178 l-198 103 54 48 c136
121 174 354 87 533 -57 118 -144 206 -290 293 -144 86 -264 123 -420 129 -96
4 -125 1 -177 -16z m319 -114 c220 -56 418 -207 480 -366 32 -83 29 -198 -6
-276 -32 -69 -58 -99 -106 -124 -75 -37 -65 -41 -391 130 -181 95 -313 171
-327 187 -13 16 -38 57 -55 93 -27 55 -31 76 -31 140 0 118 45 186 146 221 75
26 176 24 290 -5z"/>
<path d="M2807 15389 c-86 -20 -151 -67 -208 -149 -20 -30 -23 -46 -24 -130 0
-88 2 -100 34 -165 67 -138 253 -293 443 -370 127 -52 193 -67 319 -72 134 -6
205 9 279 59 92 62 140 153 140 268 0 57 -5 78 -36 140 -97 193 -368 364 -658
415 -96 16 -228 18 -289 4z m358 -134 c293 -86 515 -272 515 -431 0 -51 -40
-133 -80 -163 -101 -74 -304 -68 -501 14 -165 70 -337 210 -389 320 -42 87
-29 188 32 245 62 57 257 64 423 15z"/>
<path d="M25570 15371 c0 -8 131 -74 136 -68 3 2 -12 17 -32 32 -34 26 -104
50 -104 36z"/>
<path d="M25277 15023 c-28 -27 19 -60 53 -36 l23 16 -24 13 c-27 15 -43 17
-52 7z"/>
<path d="M2417 14530 c-253 -64 -311 -322 -123 -552 143 -175 510 -323 759
-305 248 17 420 192 404 411 -7 104 -39 178 -106 248 -61 63 -94 73 -124 40
-27 -30 -20 -58 24 -99 61 -57 92 -124 93 -203 2 -122 -52 -202 -173 -259 -51
-24 -67 -26 -171 -25 -118 1 -214 22 -327 71 l-41 18 115 265 c63 146 117 279
120 296 6 39 -15 54 -112 79 -80 20 -280 29 -338 15z m255 -111 c29 -6 55 -13
57 -15 3 -2 -187 -460 -196 -473 -7 -10 -61 28 -115 80 -159 155 -158 354 3
404 54 17 180 19 251 4z"/>
<path d="M2136 13644 c-122 -27 -213 -86 -264 -173 -23 -39 -27 -59 -30 -141
-4 -92 4 -134 43 -222 7 -17 4 -17 -35 -3 -23 8 -55 15 -71 15 -49 0 -75 -46
-46 -82 15 -20 1619 -528 1666 -528 39 0 61 36 44 73 -9 19 -50 35 -259 101
-137 43 -251 80 -253 82 -2 2 13 22 33 45 105 116 120 323 36 489 -124 245
-544 412 -864 344z m374 -124 c41 -12 113 -41 160 -66 175 -90 259 -200 268
-352 5 -86 -7 -143 -41 -193 -24 -37 -77 -76 -114 -85 -14 -4 -143 32 -350 97
-309 96 -330 105 -370 142 -61 58 -104 146 -111 222 -10 133 53 212 203 252
73 19 260 10 355 -17z"/>
<path d="M974 12305 c-13 -21 -15 -31 -6 -50 13 -28 -2 -24 352 -100 146 -31
510 -113 810 -181 300 -69 554 -122 566 -120 29 8 45 47 31 76 -11 22 -59 34
-572 152 -645 147 -1110 248 -1142 248 -13 0 -30 -11 -39 -25z"/>
<path d="M918 12049 c-20 -11 -25 -73 -8 -84 6 -4 196 -44 423 -90 227 -46
605 -124 840 -174 235 -50 436 -91 447 -91 39 0 64 53 41 89 -5 8 -187 51
-477 112 -599 127 -1203 249 -1229 249 -11 0 -28 -5 -37 -11z"/>
<path d="M1533 11630 c-44 -9 -111 -40 -154 -73 -80 -59 -128 -185 -110 -288
21 -123 126 -261 255 -338 183 -110 494 -174 664 -137 206 43 339 174 350 344
5 85 -11 138 -65 209 l-35 45 70 -7 c76 -7 102 5 102 49 0 38 -29 52 -130 65
-93 12 -516 82 -733 121 -118 21 -148 23 -214 10z m316 -140 c252 -44 311 -59
393 -101 119 -60 183 -144 182 -239 0 -64 -17 -102 -71 -154 -116 -113 -296
-133 -548 -61 -290 82 -455 255 -421 440 14 73 124 152 216 154 14 1 126 -17
249 -39z"/>
<path d="M1388 10710 c-173 -22 -280 -121 -279 -257 0 -91 38 -175 116 -262
l35 -38 -58 -21 c-113 -42 -174 -122 -174 -230 0 -69 31 -156 76 -215 l32 -42
-49 4 c-36 2 -53 -2 -68 -15 -26 -23 -24 -60 4 -78 33 -20 1219 -141 1246
-127 37 20 35 79 -3 94 -8 3 -216 27 -463 52 -499 52 -485 48 -570 137 -83 86
-114 192 -74 255 11 18 40 42 63 55 40 22 54 23 223 22 134 -1 249 -9 448 -32
331 -39 332 -39 353 -7 21 32 7 72 -28 79 -38 8 -586 66 -687 73 -92 6 -95 7
-155 52 -76 57 -142 152 -152 218 -10 69 15 110 91 148 l60 30 200 -1 c206 -1
303 -8 633 -46 139 -16 198 -19 210 -11 23 13 27 66 8 82 -51 42 -853 105
-1038 81z"/>
<path d="M11803 10090 c-6 -14 -24 -45 -39 -70 l-27 -45 43 41 c33 33 41 47
38 70 l-3 29 -12 -25z"/>
<path d="M11632 9728 c2 -25 8 -34 26 -36 17 -3 22 1 22 20 0 27 -17 48 -38
48 -9 0 -12 -10 -10 -32z"/>
<path d="M15223 9709 c-15 -35 -19 -57 -13 -72 8 -21 9 -20 23 13 20 46 32
110 20 110 -5 0 -19 -23 -30 -51z"/>
<path d="M13543 9682 c-21 -49 -21 -50 -2 -78 10 -16 17 -35 14 -43 -12 -32
25 13 46 55 23 49 20 73 -4 27 -15 -28 -15 -27 -14 26 2 70 -14 75 -40 13z"/>
<path d="M13532 9421 c-9 -5 -12 -23 -10 -51 l3 -43 22 51 c21 51 16 63 -15
43z"/>
<path d="M717 9310 c-105 -27 -209 -118 -247 -215 -31 -82 -32 -198 -1 -276
28 -72 89 -142 155 -177 46 -24 61 -27 156 -27 100 0 109 2 180 36 85 41 199
123 321 231 262 232 382 305 530 323 71 9 168 -14 224 -53 61 -43 99 -125 99
-216 1 -201 -132 -296 -415 -296 -70 0 -89 -3 -102 -18 -24 -27 -21 -59 8 -78
22 -14 44 -16 148 -11 194 9 304 50 386 143 63 71 85 139 86 259 0 92 -3 105
-32 167 -58 122 -150 187 -297 209 -198 30 -355 -42 -656 -300 -296 -255 -348
-286 -476 -286 -71 0 -85 3 -122 27 -117 78 -136 264 -39 375 56 64 97 78 225
78 101 0 115 2 128 19 19 26 18 39 -4 66 -17 21 -29 23 -118 26 -54 2 -116 -1
-137 -6z"/>
<path d="M13350 8965 c0 -9 -9 -33 -20 -55 -24 -47 -24 -50 -4 -50 9 0 12 -5
8 -12 -5 -9 -4 -10 4 -3 11 11 28 135 18 135 -3 0 -6 -7 -6 -15z"/>
<path d="M14821 8816 c-14 -17 -53 -158 -46 -165 13 -13 36 30 51 95 17 78 16
95 -5 70z"/>
<path d="M14753 8586 c-5 -25 -7 -46 -2 -46 9 0 23 63 17 81 -2 7 -9 -9 -15
-35z"/>
<path d="M14801 8458 c-8 -15 -10 -35 -6 -45 6 -16 8 -15 16 7 6 13 8 33 6 45
-3 18 -4 18 -16 -7z"/>
<path d="M13291 8348 c1 -52 3 -66 9 -48 12 36 12 120 0 120 -6 0 -10 -30 -9
-72z"/>
<path d="M13185 8354 c-12 -30 -13 -39 -3 -46 28 -17 36 -8 31 35 -3 23 -7 44
-9 46 -1 2 -10 -14 -19 -35z"/>
<path d="M14724 8194 c-4 -26 -2 -54 4 -67 9 -18 11 -9 11 46 1 37 -1 67 -3
67 -3 0 -8 -21 -12 -46z"/>
<path d="M13230 8101 c0 -28 -52 -471 -60 -503 -4 -21 -4 -38 0 -38 17 0 35
91 50 245 6 66 18 147 26 180 14 58 12 109 -7 120 -5 4 -9 2 -9 -4z"/>
<path d="M13209 7605 c-9 -44 -13 -84 -10 -90 9 -17 32 78 29 125 -3 43 -4 41
-19 -35z"/>
<path d="M11179 7468 c-5 -66 -2 -107 9 -117 9 -9 12 1 12 49 0 33 0 63 1 67
0 4 -4 9 -10 11 -6 2 -11 -2 -12 -10z"/>
<path d="M14578 7365 c-4 -55 -18 -139 -31 -187 -26 -92 -22 -116 11 -73 16
20 22 48 27 128 4 56 5 131 3 167 -3 62 -3 60 -10 -35z"/>
<path d="M11242 7357 c-18 -21 -47 -187 -33 -187 4 0 13 19 20 41 12 41 25 42
34 4 3 -11 5 14 6 55 1 82 -8 110 -27 87z"/>
<path d="M13033 7273 c3 -5 2 -38 -2 -76 -7 -67 2 -114 13 -66 2 13 3 -4 0
-39 -5 -60 -14 -98 -49 -192 -21 -57 -13 -135 21 -202 43 -84 53 -56 17 46
-22 63 -14 56 23 -24 35 -74 59 -110 76 -110 5 0 -2 15 -16 33 -15 19 -26 37
-26 42 0 4 -13 35 -29 69 -16 33 -34 72 -40 86 -10 23 -11 23 -6 -10 4 -31 4
-32 -5 -11 -17 39 3 69 47 69 16 0 23 36 23 134 0 61 -4 109 -10 113 -5 3 -10
21 -10 38 0 51 -12 107 -22 107 -5 0 -7 -3 -5 -7z"/>
<path d="M14409 7163 c-23 -68 -30 -164 -13 -170 6 -2 16 39 25 107 8 60 12
110 9 110 -3 0 -12 -21 -21 -47z"/>
<path d="M11132 7117 c-7 -16 -15 -46 -18 -68 -4 -22 -11 -42 -15 -45 -10 -6
-10 -97 0 -133 29 -105 79 130 51 244 l-7 30 -11 -28z"/>
<path d="M11185 6955 c4 -77 11 -148 17 -158 15 -29 20 -14 9 34 -6 28 -6 49
1 62 5 10 7 29 3 41 -3 11 -8 46 -11 76 -3 30 -10 62 -15 70 -7 10 -8 -33 -4
-125z"/>
<path d="M13054 6832 c3 -24 17 -68 32 -98 28 -55 115 -154 136 -154 6 0 -13
24 -43 54 -62 61 -105 134 -119 198 l-9 43 3 -43z"/>
<path d="M14441 6769 c-1 -18 -66 -89 -121 -132 -43 -35 -20 -24 37 16 48 34
98 100 90 119 -4 9 -6 8 -6 -3z"/>
<path d="M14220 6660 c-94 -39 -95 -39 -50 -39 51 0 104 17 60 19 -19 1 -10 7
34 25 58 24 79 36 60 34 -5 -1 -52 -18 -104 -39z"/>
<path d="M13935 6551 c-3 -5 -35 -19 -71 -31 -37 -13 -78 -29 -93 -36 -14 -8
-34 -14 -43 -14 -10 0 -18 -3 -18 -7 0 -5 34 -7 75 -5 41 2 75 8 75 13 0 5
-12 9 -27 10 -22 0 -16 5 27 20 54 19 116 58 93 59 -6 0 -14 -4 -18 -9z"/>
<path d="M13633 6534 c-3 -9 -20 -22 -37 -30 -44 -19 -11 -17 58 4 73 22 85
42 27 42 -29 0 -44 -5 -48 -16z"/>
<path d="M12734 6409 c-10 -12 -56 -51 -101 -87 -83 -66 -107 -89 -55 -57 80
52 190 150 180 160 -3 3 -13 -4 -24 -16z"/>
<path d="M12270 6398 c-19 -6 -70 -8 -113 -6 -69 4 -78 3 -74 -11 6 -26 -14
-38 -79 -46 -32 -4 -66 -13 -74 -20 -8 -7 -41 -16 -73 -20 -32 -3 -57 -8 -55
-10 2 -2 35 -9 73 -15 39 -6 80 -18 93 -26 34 -22 30 9 -5 34 l-27 20 53 11
c28 6 58 11 65 11 8 0 16 6 19 14 5 12 132 41 211 48 16 2 31 9 34 16 4 14 0
14 -48 0z"/>
<path d="M12520 6380 c-30 -10 -88 -24 -127 -31 -73 -13 -73 -13 -42 -26 35
-15 149 -18 149 -4 0 5 -17 12 -37 16 l-38 7 70 20 c39 10 74 23 80 29 11 11
14 11 -55 -11z"/>
<path d="M5955 5380 c-325 -44 -506 -316 -585 -875 -41 -298 -51 -497 -79
-1560 -15 -583 -25 -1063 -21 -1068 6 -7 419 9 426 16 4 4 34 966 34 1080 l0
67 133 0 c72 0 170 -3 216 -7 l84 -6 -7 -542 c-7 -490 -6 -542 8 -554 14 -12
47 -12 199 0 178 14 182 14 193 39 9 19 13 347 16 1265 3 1372 5 1323 -62
1590 -53 212 -118 344 -219 446 -95 95 -196 128 -336 109z m96 -633 c42 -27
75 -92 90 -177 13 -72 26 -927 15 -985 l-7 -35 -67 0 c-37 0 -136 5 -221 12
l-154 11 7 291 c11 497 38 683 118 815 54 89 145 117 219 68z"/>
<path d="M9421 5359 c-57 -5 -103 -15 -118 -25 l-25 -16 6 -156 c4 -87 22
-796 41 -1577 19 -781 37 -1452 41 -1492 l6 -71 95 -7 c53 -4 177 -5 277 -2
213 6 327 30 466 99 124 60 231 170 294 299 87 179 111 327 103 639 -7 307
-43 483 -135 670 -58 119 -169 237 -273 290 l-67 34 24 37 c34 54 71 148 100
252 20 70 27 125 31 229 9 214 -18 360 -93 516 -72 149 -176 238 -325 277 -60
16 -288 18 -448 4z m337 -526 c29 -18 68 -99 83 -173 17 -79 7 -214 -20 -276
-24 -55 -62 -98 -97 -108 -20 -6 -21 -3 -27 181 -4 104 -7 237 -7 296 0 108 0
108 23 102 12 -4 32 -14 45 -22z m160 -1182 c47 -24 132 -112 165 -171 38 -65
66 -194 77 -355 12 -158 7 -231 -21 -325 -40 -136 -139 -214 -286 -227 l-70
-6 -7 44 c-6 42 -26 755 -26 939 0 82 1 86 28 102 36 23 94 22 140 -1z"/>
<path d="M4135 5353 c-78 -7 -251 -35 -343 -55 -101 -24 -135 -46 -150 -102
-9 -30 5 -3176 14 -3185 2 -3 100 2 217 10 l212 14 -4 645 c-2 355 -1 643 1
640 3 -3 42 -88 87 -190 108 -242 522 -1080 534 -1080 5 0 90 39 188 87 132
64 181 93 185 108 3 14 -106 261 -325 735 -182 392 -330 714 -328 715 1 1 54
18 117 38 220 69 397 174 487 286 108 137 153 271 160 484 6 169 -5 262 -46
379 -39 107 -85 179 -166 257 -179 170 -476 246 -840 214z m457 -513 c100 -37
148 -116 148 -244 0 -229 -153 -416 -387 -473 -76 -18 -257 -23 -271 -8 -5 6
-13 168 -16 361 l-7 352 63 11 c192 36 375 37 470 1z"/>
<path d="M21215 5345 c-147 -19 -342 -61 -371 -80 -13 -8 -31 -29 -40 -47 -15
-29 -16 -159 -9 -1620 l8 -1588 31 0 c17 0 115 5 219 12 l187 12 1 635 0 636
20 -40 c10 -22 62 -134 115 -250 158 -347 466 -965 481 -965 7 0 94 41 193 90
153 77 180 93 180 113 0 12 -148 342 -329 732 l-328 710 86 26 c367 110 553
262 642 521 41 121 55 266 40 411 -38 383 -236 602 -616 682 -109 23 -368 28
-510 10z m460 -486 c75 -14 124 -39 163 -83 39 -45 52 -91 52 -188 0 -138 -47
-246 -149 -341 -104 -95 -227 -139 -398 -140 -56 -1 -106 2 -110 6 -8 9 -23
670 -15 699 10 39 325 72 457 47z"/>
<path d="M8640 5320 c-13 -13 -20 -33 -20 -57 0 -21 -11 -535 -25 -1143 -14
-608 -25 -1130 -26 -1160 l-1 -55 -15 60 c-8 33 -72 310 -143 615 -279 1200
-399 1703 -407 1710 -8 8 -292 30 -390 30 l-52 0 -5 -52 c-3 -29 -8 -815 -11
-1747 l-5 -1694 197 7 c109 3 211 9 227 13 l29 6 -7 746 c-3 410 -9 800 -11
866 l-5 120 74 -285 c41 -157 138 -535 215 -840 78 -305 146 -565 151 -577 9
-22 16 -23 105 -23 84 0 465 28 473 35 1 1 13 654 27 1451 13 797 26 1560 30
1695 l6 245 -188 27 c-103 15 -191 27 -195 27 -5 0 -17 -9 -28 -20z"/>
<path d="M11530 5325 c-329 -90 -576 -435 -720 -1005 -122 -484 -132 -1067
-26 -1487 47 -186 120 -355 209 -488 56 -83 180 -203 257 -248 136 -79 330
-115 472 -88 84 16 228 87 306 152 88 71 182 194 246 320 123 241 227 671 265
1099 16 170 14 533 -4 683 -67 570 -282 922 -640 1043 -100 34 -276 43 -365
19z m344 -534 c205 -92 316 -517 286 -1097 -25 -476 -103 -780 -248 -960 -245
-305 -607 -103 -737 411 -58 229 -54 557 11 885 75 378 220 649 399 743 93 48
206 56 289 18z"/>
<path d="M19546 5325 c-316 -80 -572 -425 -711 -958 -236 -907 -91 -1862 335
-2202 85 -68 140 -98 236 -132 70 -24 93 -27 209 -27 110 -1 140 3 195 22 246
87 444 312 555 632 146 422 225 999 196 1442 -6 99 -21 233 -32 297 -83 490
-296 798 -629 911 -85 29 -268 36 -354 15z m354 -541 c60 -32 89 -62 134 -138
152 -252 189 -881 86 -1429 -59 -309 -185 -532 -341 -602 -53 -24 -71 -27
-128 -23 -94 7 -153 38 -241 127 -110 111 -173 230 -219 410 -35 141 -44 242
-38 456 18 738 289 1259 641 1230 36 -3 76 -15 106 -31z"/>
<path d="M16484 5296 c-160 -37 -312 -158 -391 -311 -64 -123 -84 -206 -90
-372 -9 -216 18 -340 108 -515 64 -122 135 -211 341 -430 216 -228 301 -337
363 -463 62 -127 79 -197 79 -335 1 -132 -21 -222 -74 -302 -41 -62 -84 -88
-145 -88 -145 0 -211 113 -224 384 -6 139 -8 149 -30 167 -27 22 -84 24 -251
9 -151 -14 -144 2 -137 -285 6 -249 16 -317 65 -453 79 -215 228 -345 430
-374 104 -15 186 -2 285 45 146 69 255 184 342 362 92 185 125 336 125 568 0
300 -67 534 -215 759 -54 82 -113 147 -281 316 -227 229 -251 261 -308 419
-38 109 -43 186 -17 272 23 74 81 151 115 151 98 0 190 -180 230 -451 9 -56
20 -107 25 -112 6 -6 77 8 197 39 l187 48 -7 77 c-17 203 -79 441 -152 579
-73 140 -178 238 -299 281 -74 26 -193 33 -271 15z"/>
<path d="M25015 5298 c-27 -5 -88 -27 -134 -49 -96 -47 -194 -137 -250 -232
-123 -208 -146 -534 -55 -789 60 -169 154 -304 369 -528 293 -305 394 -447
451 -635 28 -91 26 -319 -3 -397 -28 -74 -76 -144 -116 -169 -68 -41 -184 -11
-233 60 -44 65 -65 153 -71 306 -9 200 -8 200 -283 175 -150 -14 -143 1 -136
-275 6 -232 17 -313 61 -446 121 -363 488 -506 792 -308 271 177 430 582 394
1005 -19 220 -57 359 -141 524 -75 144 -165 255 -380 470 -176 175 -200 203
-232 270 -106 222 -107 396 -1 505 31 32 40 36 67 31 92 -19 169 -176 211
-436 10 -58 23 -111 30 -118 10 -11 43 -6 191 33 98 25 181 48 185 50 15 10
-30 306 -67 433 -49 168 -126 312 -211 394 -114 110 -275 157 -438 126z"/>
<path d="M12855 5273 c-104 -7 -191 -16 -194 -18 -4 -5 167 -3267 172 -3271 1
-1 124 -27 274 -56 l271 -55 10 56 c5 31 54 336 108 678 54 343 101 619 104
615 4 -4 78 -290 165 -637 87 -346 161 -633 164 -637 11 -12 505 46 528 62 19
14 26 88 142 1555 68 847 125 1557 128 1578 l6 37 -242 0 c-185 0 -243 -3
-246 -12 -2 -7 -38 -481 -80 -1053 -42 -572 -80 -1048 -83 -1058 -6 -16 -180
661 -273 1058 -16 72 -31 135 -34 142 -2 8 -73 -7 -226 -45 l-223 -57 -66
-378 -65 -379 -6 239 c-4 131 -10 556 -14 946 l-8 707 -61 -1 c-33 -1 -146 -8
-251 -16z"/>
<path d="M17661 5280 l-374 -5 -18 -25 c-16 -22 -20 -52 -25 -235 -6 -240 3
-302 46 -321 17 -7 98 -8 250 -4 124 3 225 6 226 5 0 0 -14 -610 -32 -1355
-27 -1163 -29 -1360 -18 -1389 l14 -34 163 7 c241 10 263 13 277 44 8 19 18
389 36 1302 13 701 24 1312 24 1357 l0 82 245 -6 245 -6 0 281 c0 154 3 287 6
296 7 17 -182 18 -1065 6z"/>
<path d="M23246 5208 c-9 -95 -26 -1841 -26 -2599 0 -516 3 -669 13 -682 11
-15 69 -18 592 -27 569 -10 580 -10 596 9 13 16 17 63 22 279 8 276 4 308 -35
316 -13 3 -189 7 -393 11 -203 3 -370 7 -372 8 -1 2 -4 161 -5 355 l-3 352
198 0 197 0 0 293 c-1 227 -4 296 -14 310 -11 14 -31 17 -122 18 -60 1 -140 4
-179 8 l-70 6 2 140 c2 77 6 261 9 409 l7 269 333 -7 c326 -7 333 -7 343 13
14 25 15 520 1 555 l-10 26 -539 0 -539 0 -6 -62z"/>
<path d="M6896 5214 c-10 -10 -16 -33 -16 -62 0 -26 -4 -209 -10 -407 -12
-449 -27 -1154 -40 -1915 -5 -322 -12 -617 -15 -657 -4 -65 -2 -75 18 -99 l23
-26 200 24 199 24 3 89 c14 425 47 2945 39 2968 -11 31 -4 30 -205 57 -183 24
-177 24 -196 4z"/>
<path d="M22572 5217 c-18 -21 -35 -627 -62 -2167 -5 -316 -12 -662 -14 -768
-5 -181 -4 -194 15 -213 23 -23 20 -23 239 4 l175 22 7 65 c4 36 17 721 29
1522 19 1292 20 1460 7 1481 -14 20 -31 24 -159 40 -79 10 -162 21 -184 24
-29 4 -44 1 -53 -10z"/>
</g>
</svg>
